if (_typeface_js && _typeface_js.loadFace) _typeface_js.loadFace({"glyphs":{"0":{"ha":700,"x_min":46,"x_max":653,"o":"m 653 28 l 653 946 q 648 960 653 953 q 633 968 643 968 l 74 968 q 51 960 57 968 q 46 939 46 951 l 46 28 q 52 7 46 14 q 67 0 58 0 l 631 0 q 647 8 642 0 q 653 28 653 17 m 208 167 q 208 315 208 233 q 208 481 208 396 q 209 648 208 565 q 210 801 210 731 l 489 801 l 489 167 q 348 168 422 168 q 208 167 274 168 "},"1":{"ha":679,"x_min":38,"x_max":653,"o":"m 636 168 l 636 168 l 431 168 q 431 365 431 253 q 432 590 432 478 q 432 801 432 703 q 431 956 432 899 q 408 967 431 964 q 358 971 386 971 q 306 969 331 971 q 279 963 282 967 q 230 914 261 946 q 163 847 199 882 q 95 780 128 813 q 43 728 63 747 q 53 701 38 722 q 90 657 68 679 q 134 619 113 635 q 161 610 156 604 q 206 654 176 625 q 268 715 235 683 q 267 577 268 650 q 267 432 267 504 q 267 292 267 360 q 268 168 268 224 l 65 168 q 53 142 57 168 q 48 84 49 115 q 51 26 47 53 q 64 0 56 0 l 636 0 q 649 26 644 0 q 653 84 653 53 q 649 142 653 115 q 636 168 644 168 "},"2":{"ha":707,"x_min":50,"x_max":657,"o":"m 640 167 l 640 167 l 214 167 l 214 354 l 636 354 q 650 363 647 354 q 653 379 653 372 l 653 953 q 633 971 653 971 q 559 971 606 971 q 457 971 513 971 q 342 971 401 971 q 228 971 282 971 q 132 971 175 971 q 67 971 89 971 q 54 944 58 971 q 50 887 50 918 q 54 829 50 856 q 67 803 58 803 q 134 803 86 803 q 242 804 182 804 q 369 803 303 804 q 490 803 435 803 q 492 658 492 731 q 490 519 492 586 l 68 519 q 56 513 61 519 q 51 500 51 507 q 51 464 51 499 q 51 378 51 429 q 51 266 51 326 q 51 153 51 206 q 51 65 51 101 q 51 26 51 29 q 54 10 51 19 q 69 0 57 1 l 640 0 q 653 26 649 0 q 657 83 657 51 q 653 140 657 114 q 640 167 649 167 "},"3":{"ha":701,"x_min":50,"x_max":656,"o":"m 653 943 q 633 968 653 968 l 67 968 q 54 942 58 968 q 50 885 50 917 q 54 828 50 854 q 67 803 58 803 q 132 803 85 803 q 239 803 179 803 q 365 803 299 803 q 490 803 432 803 l 490 517 l 232 517 q 219 491 224 517 q 215 434 215 465 q 219 377 215 403 q 232 351 224 351 l 490 351 l 490 165 l 67 165 q 54 140 58 165 q 51 83 50 114 q 56 26 51 51 q 68 0 60 0 l 640 0 q 653 7 651 0 q 656 19 656 14 q 656 61 656 21 q 656 166 656 101 q 655 313 656 231 q 654 481 654 394 q 653 649 654 567 q 653 797 653 732 q 653 901 653 861 q 653 943 653 942 "},"4":{"ha":668,"x_min":17,"x_max":622,"o":"m 622 17 l 622 953 q 597 965 622 961 q 542 969 572 969 q 488 965 513 969 q 463 953 463 961 q 464 730 464 844 q 464 517 464 615 l 181 517 q 181 626 181 568 q 181 742 181 683 q 181 854 181 800 q 181 953 181 908 q 155 965 181 961 q 99 969 129 969 q 42 965 68 969 q 17 953 17 961 l 17 371 q 24 356 17 363 q 42 350 31 350 l 460 350 q 459 276 460 317 q 458 192 458 236 q 459 103 458 149 q 460 17 460 58 q 485 4 460 8 q 541 0 511 0 q 597 4 571 0 q 622 17 622 8 "},"5":{"ha":707,"x_min":50,"x_max":657,"o":"m 656 26 l 656 494 q 651 510 656 503 q 638 517 647 517 q 572 517 618 517 q 466 517 526 517 q 340 518 406 518 q 215 518 274 518 q 215 656 215 583 q 217 803 215 729 q 341 803 275 803 q 467 803 407 803 q 574 803 528 803 q 640 803 621 803 q 653 828 649 803 q 657 885 657 854 q 653 943 657 917 q 640 969 649 969 l 74 969 q 54 950 54 969 q 54 909 54 947 q 54 814 54 871 q 54 690 54 757 q 54 558 54 622 q 54 444 54 494 q 54 371 54 393 q 74 351 54 351 l 492 351 l 492 167 l 67 167 q 54 140 58 167 q 50 83 50 114 q 54 26 50 51 q 67 0 58 0 l 633 0 q 650 8 644 0 q 656 26 656 15 "},"6":{"ha":700,"x_min":46,"x_max":651,"o":"m 651 19 l 651 496 q 648 509 651 500 q 631 519 644 518 l 208 519 l 208 801 l 633 801 q 646 827 642 801 q 650 884 650 853 q 646 942 650 915 q 633 968 642 968 l 65 968 q 52 963 58 968 q 46 947 46 958 l 46 28 q 49 8 46 17 q 65 0 51 0 l 625 0 q 651 19 651 0 m 208 167 l 208 351 l 488 351 l 488 167 q 348 168 422 168 q 208 167 274 168 "},"7":{"ha":661,"x_min":11,"x_max":615,"o":"m 615 939 q 613 963 615 954 q 594 971 610 971 l 28 971 q 15 944 19 971 q 11 887 11 918 q 15 830 11 856 q 28 804 19 804 l 451 804 l 451 17 q 477 4 451 8 q 533 0 503 0 q 590 4 564 0 q 615 17 615 8 q 615 93 615 42 q 615 212 615 144 q 615 358 615 279 q 615 515 615 436 q 615 668 615 594 q 615 800 615 742 q 615 896 615 858 q 615 939 615 933 "},"8":{"ha":699,"x_min":46,"x_max":651,"o":"m 651 28 l 651 939 q 646 959 651 950 q 626 968 640 968 l 65 968 q 50 959 54 968 q 46 939 46 950 l 46 28 q 53 6 46 11 q 72 0 61 0 l 631 0 q 651 28 651 0 m 208 801 l 488 801 l 488 518 l 208 518 q 208 581 208 540 q 208 664 208 621 q 208 745 208 707 q 208 801 208 783 m 488 167 l 208 167 l 208 351 l 488 351 l 488 167 "},"9":{"ha":701,"x_min":49,"x_max":654,"o":"m 654 28 l 654 942 q 647 958 654 949 q 628 968 640 968 l 76 968 q 56 960 63 968 q 49 942 49 951 l 49 375 q 54 358 49 368 q 74 347 60 347 l 492 347 l 492 168 q 367 168 433 168 q 240 168 300 168 q 133 167 181 168 q 68 167 86 167 q 56 140 60 167 q 51 83 51 114 q 56 26 51 51 q 68 0 60 0 l 635 0 q 648 6 642 0 q 654 28 654 13 m 492 514 l 213 514 l 213 801 l 492 801 l 492 514 "}," ":{"ha":417,"x_min":0,"x_max":0,"o":""},"E":{"ha":692,"x_min":43,"x_max":644,"o":"m 628 168 l 628 168 l 206 168 l 206 357 q 279 357 239 357 q 359 357 319 357 q 431 357 399 357 q 481 357 464 357 q 494 383 489 357 q 501 440 500 408 q 499 497 501 471 q 488 524 496 524 l 206 524 l 206 803 l 628 803 q 640 828 636 803 q 644 885 644 854 q 640 942 644 917 q 628 968 636 968 l 63 968 q 48 960 53 968 q 43 940 43 951 l 43 29 q 69 0 43 0 l 628 0 q 640 26 636 0 q 644 84 644 53 q 640 142 644 115 q 628 168 636 168 "},"F":{"ha":656,"x_min":43,"x_max":644,"o":"m 628 971 q 565 971 608 971 q 464 971 521 971 q 343 971 407 971 q 223 971 279 971 q 123 971 167 971 q 63 971 79 971 q 49 962 54 971 q 43 942 43 953 l 43 17 q 69 4 43 8 q 125 0 94 0 q 181 4 156 0 q 207 17 207 8 q 206 155 206 64 q 206 358 206 246 q 278 358 238 358 q 358 357 319 357 q 431 358 397 357 q 481 358 464 358 q 494 384 489 358 q 500 441 499 410 q 499 499 501 472 q 488 525 496 525 l 206 525 l 206 804 l 628 804 q 640 830 636 804 q 644 887 644 856 q 640 944 644 918 q 628 971 636 971 "},"G":{"ha":689,"x_min":42,"x_max":643,"o":"m 640 19 l 640 510 q 624 524 640 524 l 293 524 q 281 497 285 524 q 276 440 276 471 q 281 383 276 408 q 293 357 285 357 q 369 357 318 357 q 474 356 419 357 q 473 262 474 311 q 472 168 472 213 l 204 168 l 204 803 l 626 803 q 639 828 635 803 q 643 885 643 854 q 639 943 643 917 q 626 969 635 969 q 565 969 608 969 q 464 968 521 968 q 344 968 407 968 q 226 968 282 968 q 127 968 171 968 q 67 968 83 968 q 47 958 53 968 q 42 933 42 947 l 42 15 q 54 0 42 0 l 619 0 q 635 6 629 0 q 640 19 640 13 "},"H":{"ha":692,"x_min":42,"x_max":650,"o":"m 650 954 q 624 967 650 963 q 568 971 599 971 q 512 967 538 971 q 486 954 486 963 l 486 525 l 204 525 q 204 768 204 653 q 206 953 204 883 q 180 965 206 961 q 124 969 154 969 q 67 965 93 969 q 42 953 42 961 l 42 17 q 67 4 42 8 q 124 0 93 0 q 180 4 154 0 q 206 17 206 8 q 204 155 204 63 q 204 358 204 247 q 269 358 231 358 q 348 358 308 358 q 424 357 388 357 q 486 357 461 357 l 486 17 q 512 4 486 8 q 568 0 538 0 q 624 4 599 0 q 650 17 650 8 q 649 124 650 54 q 649 282 649 194 q 649 466 649 369 q 649 653 649 563 q 649 824 649 744 q 650 954 650 903 "},"I":{"ha":243,"x_min":40,"x_max":204,"o":"m 204 954 q 178 967 204 963 q 122 971 153 971 q 66 967 92 971 q 40 954 40 963 l 40 17 q 66 4 40 8 q 122 0 92 0 q 178 4 153 0 q 204 17 204 8 q 203 124 204 54 q 203 282 203 194 q 203 466 203 369 q 203 653 203 563 q 203 824 203 744 q 204 954 204 903 "},"J":{"ha":689,"x_min":42,"x_max":649,"o":"m 632 969 l 632 969 l 60 969 q 47 943 51 969 q 43 885 43 917 q 47 828 43 854 q 60 803 51 803 l 457 803 q 456 652 457 735 q 456 483 456 569 q 456 315 456 397 q 456 167 456 233 l 208 167 l 208 350 q 182 363 208 358 q 124 367 156 367 q 67 363 93 367 q 42 350 42 358 l 42 17 q 48 3 42 6 q 60 0 54 0 l 601 0 q 619 19 619 0 q 619 66 619 21 q 619 181 619 111 q 619 337 619 250 q 619 510 619 424 q 619 674 619 596 q 619 803 619 751 l 632 803 q 644 828 640 803 q 649 885 649 854 q 644 943 649 917 q 632 969 640 969 "},"K":{"ha":686,"x_min":39,"x_max":653,"o":"m 299 486 q 396 591 346 538 q 492 694 446 644 q 578 788 539 744 q 647 860 618 831 q 637 886 653 865 q 599 928 621 907 q 556 963 576 949 q 529 972 535 978 q 474 913 510 951 q 393 827 438 875 q 299 726 349 779 q 201 621 249 672 q 201 810 201 722 q 203 956 201 899 q 177 968 203 964 q 121 972 151 972 q 65 968 90 972 q 39 956 39 964 l 39 18 q 65 6 39 10 q 121 1 90 1 q 177 6 151 1 q 203 18 203 10 q 202 75 203 40 q 201 153 201 110 q 201 248 201 197 q 201 353 201 299 q 299 248 249 301 q 393 147 349 194 q 474 60 438 99 q 529 1 510 22 q 556 10 535 -4 q 599 46 576 25 q 637 87 621 67 q 647 114 653 107 q 578 186 618 143 q 492 278 539 229 q 396 381 446 328 q 299 486 346 435 "},"L":{"ha":649,"x_min":38,"x_max":639,"o":"m 622 168 q 557 168 603 168 q 451 168 511 168 q 324 168 390 168 q 200 168 258 168 l 200 951 q 174 964 200 960 q 119 968 149 968 q 63 964 89 968 q 38 951 38 960 l 38 31 q 63 0 39 0 l 622 0 q 635 26 631 0 q 639 84 639 53 q 635 142 639 115 q 622 168 631 168 "},"M":{"ha":743,"x_min":38,"x_max":704,"o":"m 704 942 q 689 956 704 950 q 651 965 674 963 q 602 969 629 968 q 552 967 575 969 q 513 960 529 965 q 493 950 496 956 q 426 783 460 867 q 361 617 392 700 q 301 784 332 699 q 239 950 271 869 q 222 958 238 954 q 183 965 206 963 q 135 968 161 968 q 88 965 110 968 q 52 957 67 963 q 38 942 38 951 q 38 845 38 914 q 39 687 39 776 q 39 496 39 597 q 39 301 39 394 q 38 131 39 207 q 38 17 38 56 q 62 4 38 8 q 116 0 86 0 q 170 4 146 0 q 194 17 194 8 q 195 138 194 63 q 197 298 196 214 q 199 464 197 382 q 201 606 200 546 q 224 548 211 581 q 249 484 236 515 q 272 428 261 453 q 288 394 282 404 q 315 383 292 386 q 367 379 339 379 q 419 383 396 379 q 446 394 443 388 q 489 517 468 456 q 533 639 510 578 q 538 251 536 407 q 540 17 540 94 q 566 4 540 8 q 622 0 592 0 q 678 4 653 0 q 704 17 704 8 q 704 183 704 93 q 704 367 704 274 q 704 553 704 461 q 704 722 704 644 q 704 856 704 799 q 704 942 704 914 "},"N":{"ha":678,"x_min":36,"x_max":642,"o":"m 642 17 l 642 949 q 616 965 642 960 q 560 969 590 969 q 505 963 531 968 q 479 949 479 957 q 479 851 479 913 q 479 714 479 790 q 478 553 479 638 q 478 386 478 468 q 436 468 458 424 q 391 560 414 513 q 345 654 368 607 q 301 744 322 701 q 200 949 251 846 q 174 963 200 957 q 118 969 149 968 q 62 965 88 969 q 36 949 36 960 l 36 17 q 62 4 36 8 q 118 0 88 0 q 174 4 149 0 q 200 17 200 8 q 200 113 200 51 q 200 251 200 174 q 200 414 200 328 q 200 585 200 500 q 288 408 243 499 q 372 238 332 317 q 440 99 411 158 q 482 14 469 39 q 512 3 486 6 q 566 1 538 0 q 618 6 594 1 q 642 17 642 10 "},"O":{"ha":678,"x_min":36,"x_max":642,"o":"m 642 28 l 642 949 q 638 964 642 957 q 624 971 635 971 l 56 971 q 40 963 43 971 q 36 949 36 956 l 36 835 l 36 21 q 44 5 36 10 q 56 0 51 0 l 621 0 q 638 9 635 0 q 642 28 642 18 m 199 169 l 199 804 l 479 804 q 478 653 479 736 q 478 485 478 571 q 478 318 478 400 q 479 169 479 236 q 338 171 413 171 q 199 169 264 171 "},"P":{"ha":653,"x_min":35,"x_max":640,"o":"m 640 394 l 640 938 q 615 974 640 974 l 61 974 q 40 964 46 974 q 35 944 35 954 l 35 17 q 60 4 35 8 q 117 0 86 0 q 173 4 147 0 q 199 17 199 8 q 197 153 197 63 q 197 357 197 244 l 613 357 q 635 368 631 357 q 640 394 640 379 m 476 524 l 197 524 l 197 804 l 476 804 l 476 524 "},"Q":{"ha":668,"x_min":31,"x_max":636,"o":"m 618 969 l 50 969 q 34 962 38 969 q 31 947 31 954 l 31 833 l 31 19 q 39 3 31 8 q 50 -1 47 -1 l 346 -1 q 365 -40 357 -24 q 376 -68 372 -57 q 406 -70 381 -76 q 461 -52 432 -64 q 513 -27 490 -40 q 532 -7 535 -14 q 531 -4 531 -6 q 529 -1 531 -3 l 615 -1 q 633 8 629 -1 q 636 26 636 17 l 636 947 q 633 963 636 956 q 618 969 629 969 m 396 299 q 367 299 392 306 q 313 279 342 292 q 263 252 285 267 q 243 231 240 238 q 256 203 249 219 q 271 168 263 188 l 193 168 l 193 803 l 474 803 l 474 168 l 454 168 q 421 242 436 207 q 396 299 406 276 "},"R":{"ha":688,"x_min":33,"x_max":653,"o":"m 649 113 q 572 194 603 161 q 518 253 542 228 q 474 303 494 279 q 426 357 453 326 l 611 357 q 634 368 629 357 q 639 394 639 379 l 639 938 q 614 974 639 974 l 60 974 q 39 964 44 974 q 33 944 33 954 l 33 17 q 59 4 33 8 q 115 0 85 0 q 172 4 146 0 q 197 17 197 8 q 196 155 196 64 q 196 357 196 246 l 203 357 q 271 281 243 313 q 321 225 299 250 q 362 178 343 200 q 403 133 381 157 q 454 77 425 108 q 525 1 483 46 q 551 11 529 -4 q 597 47 574 26 q 636 88 619 68 q 649 113 653 108 m 475 525 l 196 525 l 196 804 l 475 804 l 475 525 "},"S":{"ha":681,"x_min":38,"x_max":644,"o":"m 644 31 l 644 496 q 638 515 644 507 q 619 524 631 524 l 204 524 l 204 804 l 629 804 q 641 831 638 804 q 644 889 644 857 q 640 947 644 921 q 626 974 635 974 l 68 974 q 49 965 56 974 q 42 942 42 956 l 42 385 q 48 363 42 368 q 68 357 54 357 l 481 357 l 481 164 l 56 164 q 42 138 47 164 q 38 82 38 113 q 41 26 38 51 q 53 0 44 0 l 619 0 q 644 31 644 0 "},"T":{"ha":643,"x_min":19,"x_max":624,"o":"m 607 971 l 607 971 l 36 971 q 24 944 28 971 q 19 887 19 918 q 24 830 19 856 q 36 804 28 804 l 235 804 l 235 17 q 260 4 235 8 q 317 0 286 0 q 373 4 347 0 q 399 17 399 8 q 398 100 399 47 q 397 219 397 153 q 397 360 397 285 q 397 513 397 436 q 397 665 397 590 q 397 804 397 740 l 607 804 q 619 830 615 804 q 624 887 624 856 q 619 944 624 918 q 607 971 615 971 "},"U":{"ha":669,"x_min":31,"x_max":639,"o":"m 639 28 l 639 956 q 613 968 639 964 q 557 972 588 972 q 501 968 526 972 q 475 956 475 964 l 475 169 l 196 169 q 195 369 196 258 q 194 591 194 481 q 195 798 194 701 q 196 956 196 894 q 170 968 196 964 q 113 972 144 972 q 56 968 82 972 q 31 956 31 964 l 31 21 q 37 6 31 11 q 50 0 43 0 l 608 0 q 627 6 615 0 q 639 28 639 11 "},"V":{"ha":757,"x_min":17,"x_max":740,"o":"m 582 971 q 485 653 536 817 q 381 331 433 490 q 274 654 328 490 q 175 972 221 818 q 147 976 172 981 q 93 963 122 972 q 40 942 64 954 q 19 922 17 931 q 88 697 51 813 q 164 463 125 581 q 241 231 203 346 q 314 7 279 115 q 336 1 315 3 q 382 0 357 0 q 428 1 407 0 q 450 7 449 3 q 522 231 485 115 q 597 463 560 346 q 669 695 633 579 q 738 921 706 811 q 717 941 740 929 q 664 962 693 953 q 609 974 635 971 q 582 971 583 978 "},"W":{"ha":721,"x_min":31,"x_max":692,"o":"m 31 28 q 45 13 31 18 q 82 4 60 7 q 130 1 104 1 q 178 3 156 1 q 217 10 201 6 q 236 21 233 15 q 303 187 269 103 q 367 354 336 271 q 427 186 396 271 q 489 19 458 101 q 525 6 493 11 q 594 0 557 0 q 661 6 631 0 q 692 28 692 13 q 691 125 692 56 q 690 285 690 194 q 690 478 690 375 q 690 674 690 581 q 691 845 690 768 q 692 961 692 922 q 666 973 692 969 q 609 976 640 976 q 552 973 578 976 q 526 961 526 969 q 527 884 526 929 q 528 786 528 839 q 528 676 528 733 q 528 563 529 618 q 528 456 528 507 q 526 364 528 404 q 506 422 518 389 q 481 485 493 454 q 458 542 468 517 q 442 576 447 567 q 413 588 438 585 q 360 592 389 592 q 308 588 332 592 q 283 576 285 583 q 240 453 261 515 q 196 332 218 392 q 194 723 193 564 q 196 961 196 882 q 170 973 196 969 q 113 976 144 976 q 56 973 82 976 q 31 961 31 969 q 31 794 31 885 q 31 608 31 703 q 31 422 31 514 q 31 251 31 329 q 31 114 31 172 q 31 28 31 56 "},"X":{"ha":669,"x_min":22,"x_max":646,"o":"m 642 97 q 606 163 628 122 q 557 253 585 203 q 497 363 529 304 q 431 485 464 422 q 539 684 486 585 q 642 883 592 783 q 625 909 646 892 q 577 943 604 926 q 526 969 550 960 q 499 971 503 979 q 418 817 458 893 q 336 661 378 740 q 282 760 308 713 q 234 849 256 808 q 195 922 213 890 q 168 971 178 953 q 140 968 164 979 q 89 940 115 957 q 42 903 63 922 q 26 878 22 885 q 126 698 69 801 q 242 486 182 594 q 133 288 186 386 q 26 92 79 189 q 43 66 22 83 q 91 32 64 49 q 142 5 118 15 q 169 3 165 -6 q 251 156 210 79 q 336 310 293 232 q 429 137 386 217 q 501 4 472 57 q 530 7 506 -4 q 580 35 554 18 q 626 71 606 53 q 642 97 646 89 "},"Y":{"ha":657,"x_min":15,"x_max":640,"o":"m 494 969 q 417 820 456 892 q 339 672 379 749 q 249 824 294 747 q 156 972 203 900 q 126 969 150 981 q 78 938 103 957 q 34 900 53 919 q 19 874 15 881 q 76 777 46 828 q 135 675 106 726 q 193 574 164 624 q 249 479 222 524 q 247 235 247 356 q 249 11 247 115 q 273 3 249 6 q 327 0 297 0 q 381 3 357 0 q 406 11 406 6 l 406 472 q 460 571 431 519 q 519 675 489 622 q 580 780 550 728 q 636 881 610 832 q 620 906 640 889 q 574 940 600 924 q 523 967 547 957 q 494 969 499 976 "},"Z":{"ha":678,"x_min":33,"x_max":644,"o":"m 628 167 l 628 167 l 243 167 q 435 485 339 326 q 625 804 532 643 q 631 838 628 811 q 635 896 635 865 q 633 950 636 926 q 621 974 629 974 l 50 974 q 38 947 42 974 q 33 890 33 921 q 38 832 33 858 q 50 806 42 806 l 433 806 q 361 685 401 753 q 278 547 321 618 q 195 409 236 476 q 122 288 154 342 q 68 201 89 235 q 46 165 47 168 q 39 132 42 158 q 35 76 36 106 q 38 24 35 47 q 49 0 40 0 q 124 1 76 0 q 229 1 172 1 q 347 1 286 1 q 463 1 408 1 q 562 1 518 1 q 628 0 606 0 q 640 26 636 0 q 644 83 644 51 q 640 140 644 114 q 628 167 636 167 "},"a":{"ha":651,"x_min":24,"x_max":622,"o":"m 622 710 q 622 740 622 724 q 607 756 621 756 q 549 756 589 756 q 458 756 508 756 q 350 756 407 756 q 242 756 293 756 q 151 756 192 756 q 93 756 111 756 q 81 729 85 756 q 76 671 76 703 q 78 613 75 639 q 90 586 82 586 l 458 586 l 458 442 l 43 442 q 27 432 31 442 q 24 411 24 422 l 24 22 q 28 7 24 14 q 43 0 32 0 l 604 0 q 619 11 615 0 q 622 35 622 22 q 622 70 622 39 q 622 149 622 101 q 622 257 622 197 q 622 378 622 317 q 622 499 622 440 q 622 605 622 558 q 622 680 622 651 q 622 710 622 708 m 458 165 l 186 165 l 186 275 l 458 275 l 458 165 "},"b":{"ha":654,"x_min":26,"x_max":639,"o":"m 639 29 l 639 731 q 633 747 639 738 q 619 756 628 756 l 189 756 q 189 863 189 814 q 190 949 189 913 q 165 961 190 957 q 108 965 139 965 q 52 961 78 965 q 26 949 26 957 l 26 22 q 33 6 26 11 q 44 0 39 0 l 617 0 q 631 8 624 0 q 639 29 639 15 m 475 169 l 189 169 l 189 588 l 475 588 l 475 169 "},"c":{"ha":665,"x_min":26,"x_max":635,"o":"m 618 169 l 618 169 l 189 169 l 189 589 q 313 590 247 589 q 438 590 378 590 q 546 590 497 590 q 618 589 594 589 q 631 615 626 589 q 635 672 635 640 q 631 729 635 703 q 618 756 626 756 l 53 756 q 33 747 39 756 q 26 728 26 738 l 26 29 q 31 9 26 18 q 47 0 36 0 l 617 0 q 629 26 625 0 q 633 85 633 53 q 630 143 633 117 q 618 169 626 169 "},"d":{"ha":653,"x_min":14,"x_max":626,"o":"m 626 22 l 626 949 q 601 961 626 957 q 544 965 575 965 q 488 961 514 965 q 463 949 463 957 q 464 863 464 913 q 464 756 464 814 l 40 756 q 23 752 32 756 q 14 731 14 749 l 14 22 q 35 0 14 0 l 600 0 q 626 22 626 0 m 464 169 l 178 169 l 178 589 l 464 589 l 464 169 "},"e":{"ha":661,"x_min":26,"x_max":629,"o":"m 189 272 l 611 272 q 625 281 622 272 q 628 296 628 289 l 628 724 q 625 744 628 732 q 607 756 622 756 l 54 756 q 32 744 38 756 q 26 721 26 732 l 26 32 q 31 10 26 21 q 51 0 35 0 l 613 0 q 625 26 621 0 q 628 82 629 51 q 624 138 628 113 q 611 164 619 164 q 546 164 592 164 q 440 164 500 164 q 313 164 379 164 q 189 164 247 164 l 189 272 m 189 588 l 461 588 l 461 439 l 189 439 l 189 588 "},"f":{"ha":638,"x_min":26,"x_max":628,"o":"m 611 757 l 611 757 l 46 757 q 30 748 33 757 q 26 728 26 739 l 26 17 q 52 4 26 8 q 108 0 78 0 q 165 4 139 0 q 190 17 190 8 q 190 128 189 63 q 190 275 190 193 q 263 274 222 275 q 342 274 303 274 q 414 274 381 274 q 464 275 447 275 q 477 301 472 275 q 483 358 482 326 q 482 415 485 389 q 471 442 479 442 l 190 442 l 190 590 l 611 590 q 624 616 619 590 q 628 673 628 642 q 624 731 628 704 q 611 757 619 757 "},"g":{"ha":679,"x_min":26,"x_max":654,"o":"m 654 26 l 654 414 q 651 431 654 421 q 636 440 647 440 q 567 440 611 440 q 473 440 522 440 q 378 440 424 440 q 304 440 332 440 q 292 415 296 440 q 289 358 289 389 q 294 301 289 326 q 307 275 299 275 l 488 275 l 488 169 l 189 169 l 189 589 l 618 589 q 631 615 626 589 q 635 672 635 640 q 631 729 635 703 q 618 756 626 756 l 53 756 q 31 745 36 754 q 26 728 26 736 l 26 29 q 33 7 26 14 q 50 0 40 0 l 635 0 q 654 26 654 0 "},"h":{"ha":661,"x_min":26,"x_max":635,"o":"m 635 740 q 609 753 635 749 q 553 757 583 757 q 497 753 522 757 q 471 740 471 749 l 471 442 l 189 442 q 189 601 189 525 q 190 740 189 678 q 165 753 190 749 q 108 757 139 757 q 52 753 78 757 q 26 740 26 749 l 26 17 q 52 4 26 8 q 108 0 78 0 q 165 4 139 0 q 190 17 190 8 q 189 128 189 61 q 189 275 189 196 l 471 275 l 471 17 q 497 4 471 8 q 553 0 522 0 q 609 4 583 0 q 635 17 635 8 q 634 165 635 74 q 633 359 633 257 q 634 562 633 461 q 635 740 635 663 "},"i":{"ha":215,"x_min":26,"x_max":190,"o":"m 190 744 q 165 757 190 753 q 108 761 139 761 q 52 757 78 761 q 26 744 26 753 l 26 17 q 52 4 26 8 q 108 0 78 0 q 165 4 139 0 q 190 17 190 8 q 190 166 190 74 q 189 361 189 258 q 190 565 189 464 q 190 744 190 667 "},"j":{"ha":665,"x_min":29,"x_max":635,"o":"m 618 754 q 576 754 615 754 q 476 754 536 754 q 347 754 417 754 q 215 754 278 754 q 106 754 153 754 q 46 754 60 754 q 34 728 38 754 q 31 670 31 701 q 34 613 31 639 q 46 588 38 588 q 118 588 72 588 q 218 588 164 588 q 331 589 272 589 q 443 589 390 589 l 443 167 l 196 167 l 196 350 q 169 363 196 358 q 112 367 143 367 q 55 363 81 367 q 29 350 29 358 l 29 24 q 35 8 29 15 q 50 0 40 0 l 590 0 q 603 8 600 0 q 607 28 607 17 l 607 588 q 615 588 613 588 q 618 589 617 589 q 631 615 626 589 q 635 672 635 640 q 631 728 635 703 q 618 754 626 754 "},"k":{"ha":663,"x_min":26,"x_max":636,"o":"m 528 756 q 466 709 504 736 q 383 650 428 682 q 288 583 338 618 q 189 515 238 549 q 189 634 189 578 q 190 739 189 690 q 165 751 190 747 q 108 756 139 756 q 52 751 78 756 q 26 739 26 747 l 26 18 q 52 6 26 10 q 108 1 78 1 q 165 6 139 1 q 190 18 190 10 q 189 148 189 69 q 189 317 189 226 q 269 237 224 281 q 358 150 314 193 q 443 67 403 107 q 510 1 483 28 q 536 10 515 -4 q 579 46 557 25 q 617 87 601 67 q 628 114 633 107 q 556 187 594 149 q 477 264 517 225 q 398 341 438 303 q 324 414 358 379 q 490 526 411 474 q 631 628 568 579 q 624 656 636 633 q 592 702 611 678 q 554 744 574 726 q 528 756 535 761 "},"l":{"ha":635,"x_min":26,"x_max":626,"o":"m 611 169 l 611 169 l 189 169 q 189 311 189 236 q 189 462 189 386 q 189 609 189 538 q 189 738 189 681 q 163 750 189 746 q 108 754 138 754 q 52 750 78 754 q 26 738 26 746 l 26 29 q 30 9 26 18 q 46 0 33 0 l 607 0 q 620 26 615 0 q 626 85 625 53 q 623 143 626 117 q 611 169 619 169 "},"m":{"ha":719,"x_min":26,"x_max":693,"o":"m 686 731 q 656 751 686 744 q 588 758 625 757 q 518 753 550 758 q 482 739 486 749 q 415 573 449 657 q 350 406 381 489 q 290 573 321 488 q 228 739 260 658 q 193 751 225 746 q 124 757 161 757 q 57 751 88 757 q 26 731 26 746 q 27 649 26 703 q 28 530 28 596 q 28 390 28 464 q 28 246 28 315 q 27 116 28 176 q 26 17 26 56 q 51 4 26 8 q 105 0 75 0 q 159 4 135 0 q 183 17 183 8 q 184 105 183 63 q 185 192 185 147 q 188 285 186 236 q 190 394 189 335 q 213 337 200 369 q 238 273 225 304 q 260 217 250 242 q 276 183 271 193 q 304 172 281 175 q 356 168 328 168 q 408 172 385 168 q 435 183 432 176 q 478 306 457 244 q 522 428 499 367 q 524 249 524 313 q 526 146 525 185 q 528 81 528 107 q 529 17 529 56 q 555 4 529 8 q 611 0 581 0 q 667 4 642 0 q 693 17 693 8 q 692 241 693 131 q 690 447 692 351 q 688 616 689 542 q 686 731 686 690 "},"n":{"ha":663,"x_min":26,"x_max":633,"o":"m 632 738 q 606 753 632 749 q 551 758 581 758 q 495 751 521 757 q 469 738 469 746 q 469 654 469 703 q 469 550 469 606 q 469 434 469 494 q 468 315 468 374 q 426 374 449 342 q 381 442 404 407 q 335 512 358 476 q 292 581 313 547 q 190 738 242 657 q 160 753 186 747 q 103 760 133 760 q 50 754 74 760 q 26 738 26 749 l 26 17 q 52 4 26 8 q 108 0 78 0 q 165 4 139 0 q 190 17 190 8 q 190 98 190 51 q 189 199 189 144 q 189 315 189 254 q 189 436 189 375 q 277 309 232 374 q 362 187 322 244 q 431 84 401 129 q 472 14 460 39 q 501 4 475 7 q 556 1 526 1 q 608 5 585 1 q 632 17 632 8 q 633 168 633 78 q 633 358 633 258 q 633 558 633 458 q 632 738 632 658 "},"o":{"ha":658,"x_min":26,"x_max":632,"o":"m 632 19 l 632 129 q 632 273 632 196 q 632 429 632 350 q 632 583 632 508 q 632 719 632 658 q 626 743 632 732 q 607 754 619 754 l 53 754 q 31 743 35 754 q 26 718 26 732 l 26 19 q 31 6 26 13 q 44 0 35 0 l 617 0 q 628 6 624 0 q 632 19 632 13 m 468 167 l 189 167 l 189 588 l 468 588 l 468 167 "},"p":{"ha":647,"x_min":26,"x_max":632,"o":"m 632 167 l 632 729 q 628 748 632 739 q 611 757 624 757 l 44 757 q 31 750 35 757 q 26 736 26 743 l 26 17 q 52 4 26 8 q 108 0 78 0 q 165 4 139 0 q 190 17 190 8 q 190 74 189 42 q 190 144 190 107 q 313 144 249 144 q 435 144 376 144 q 540 143 493 143 q 611 143 588 143 q 628 151 624 143 q 632 167 632 158 m 468 311 l 189 311 l 189 590 l 468 590 l 468 311 "},"q":{"ha":653,"x_min":22,"x_max":628,"o":"m 628 18 l 628 718 q 622 742 628 731 q 603 753 615 753 l 49 753 q 26 742 31 753 q 22 717 22 731 l 22 18 q 26 5 22 11 q 40 -1 31 -1 l 329 -1 q 348 -43 340 -25 q 361 -72 356 -61 q 391 -74 365 -81 q 446 -56 417 -68 q 497 -31 475 -44 q 517 -10 519 -17 l 513 -1 l 613 -1 q 624 5 619 -1 q 628 18 628 11 m 381 294 q 351 294 376 301 q 298 275 326 288 q 247 248 269 263 q 228 226 225 233 q 240 200 233 215 q 256 165 247 185 l 185 165 l 185 586 l 464 586 l 464 165 l 439 165 q 406 238 421 204 q 381 294 390 272 "},"r":{"ha":669,"x_min":26,"x_max":639,"o":"m 639 299 l 639 725 q 633 749 639 738 q 611 760 626 760 l 50 760 q 31 751 35 760 q 26 732 26 743 l 26 17 q 52 4 26 8 q 108 0 78 0 q 165 4 139 0 q 190 17 190 8 q 190 133 189 64 q 190 283 190 203 l 256 283 q 305 228 285 250 q 340 188 325 206 q 370 153 356 169 q 403 117 385 138 q 447 69 422 97 q 511 1 472 42 q 538 11 515 -4 q 583 47 560 26 q 622 88 606 68 q 635 113 639 108 q 578 174 601 149 q 536 219 554 200 q 505 253 518 238 q 478 283 492 268 q 562 283 525 282 q 618 283 599 283 q 633 287 626 283 q 639 299 639 290 m 189 593 l 475 593 l 475 450 l 189 450 l 189 593 "},"s":{"ha":674,"x_min":32,"x_max":646,"o":"m 646 25 l 646 428 q 641 440 646 435 q 628 444 636 444 l 200 444 q 199 515 199 482 q 200 588 200 547 l 624 588 q 636 613 632 588 q 640 670 640 639 q 636 728 640 701 q 624 754 632 754 l 64 754 q 43 745 49 754 q 38 726 38 736 l 38 310 q 38 289 38 300 q 50 278 39 278 l 482 278 l 482 167 q 363 167 426 167 q 240 167 300 167 q 130 167 181 167 q 50 167 79 167 q 37 140 42 167 q 32 83 32 114 q 35 25 32 51 q 47 -1 39 -1 l 615 -1 q 646 25 646 -1 "},"t":{"ha":639,"x_min":17,"x_max":621,"o":"m 604 756 q 542 756 586 756 q 440 757 497 757 q 319 757 383 757 q 197 757 254 757 q 96 756 140 757 q 33 756 51 756 q 21 729 25 756 q 17 672 17 703 q 21 615 17 640 q 33 589 25 589 q 117 590 64 589 q 232 590 169 590 l 232 17 q 258 4 232 8 q 314 0 283 0 q 370 4 344 0 q 396 17 396 8 q 395 129 396 63 q 394 273 394 196 q 394 433 394 350 q 394 590 394 515 q 520 590 464 590 q 604 589 576 589 q 617 615 613 589 q 621 672 621 640 q 617 729 621 703 q 604 756 613 756 "},"u":{"ha":658,"x_min":26,"x_max":632,"o":"m 632 739 q 606 751 632 747 q 551 756 581 756 q 495 751 521 756 q 469 739 469 747 q 469 624 469 693 q 468 475 468 554 q 468 315 468 396 q 468 167 468 233 l 189 167 q 189 310 189 233 q 189 463 189 386 q 189 610 189 539 q 189 739 189 682 q 163 751 189 747 q 108 756 138 756 q 52 751 78 756 q 26 739 26 747 l 26 19 q 43 0 26 0 l 615 0 q 627 5 622 0 q 632 19 632 10 q 632 64 632 21 q 632 173 632 107 q 632 321 632 239 q 632 482 632 403 q 632 630 632 561 q 632 739 632 699 "},"v":{"ha":621,"x_min":15,"x_max":606,"o":"m 447 747 q 410 632 426 681 q 380 538 394 583 q 349 444 365 493 q 311 329 333 396 q 272 446 289 394 q 240 545 256 497 q 208 641 224 593 q 174 749 193 689 q 145 753 171 757 q 90 741 119 750 q 38 719 61 732 q 18 699 15 707 q 76 509 50 590 q 128 352 103 428 q 181 195 153 276 q 243 7 208 114 q 265 1 244 3 q 311 0 286 0 q 357 1 336 0 q 379 7 378 3 q 441 195 414 114 q 493 352 468 276 q 544 508 518 428 q 603 697 571 589 q 583 718 606 706 q 531 740 560 731 q 476 752 501 749 q 447 747 450 756 "},"w":{"ha":725,"x_min":26,"x_max":696,"o":"m 26 29 q 42 14 26 19 q 79 6 57 8 q 128 3 101 3 q 178 5 156 3 q 218 12 201 7 q 238 22 235 17 q 305 188 271 104 q 369 356 339 272 q 429 188 399 272 q 492 21 460 103 q 526 7 494 14 q 594 -1 557 0 q 661 5 631 -1 q 693 29 692 11 q 695 110 694 57 q 696 230 696 164 q 695 370 696 296 q 694 515 694 444 q 693 645 693 585 q 693 744 693 706 q 669 756 693 753 q 615 760 644 760 q 560 756 585 760 q 536 744 536 753 q 535 655 536 697 q 534 568 535 613 q 532 474 533 524 q 529 365 531 425 q 507 423 519 390 q 482 487 494 456 q 459 543 469 518 q 443 578 449 568 q 415 590 439 586 q 363 592 390 593 q 311 588 335 592 q 285 578 288 585 q 242 455 263 517 q 197 332 221 393 q 194 512 196 447 q 192 615 193 576 q 191 679 192 653 q 190 744 190 706 q 165 756 190 753 q 108 760 139 760 q 52 756 78 760 q 26 744 26 753 q 26 519 26 631 q 26 313 26 408 q 26 144 26 218 q 26 29 26 69 "},"x":{"ha":706,"x_min":24,"x_max":681,"o":"m 554 754 q 446 624 494 682 q 353 514 397 567 q 270 624 314 567 q 172 754 226 682 q 142 751 167 763 q 92 721 118 739 q 48 684 67 703 q 35 658 29 665 q 147 509 97 575 q 243 382 197 443 q 144 263 196 325 q 29 122 93 201 q 38 91 24 115 q 74 44 53 67 q 118 7 96 21 q 150 6 140 -7 q 256 135 208 78 q 347 246 304 193 q 432 134 388 193 q 532 4 476 75 q 563 7 539 -4 q 613 36 588 18 q 657 74 639 54 q 669 100 675 93 q 553 251 604 185 q 457 376 503 317 q 556 496 504 433 q 675 638 608 558 q 665 666 681 644 q 627 710 650 688 q 582 747 604 732 q 554 754 560 761 "},"y":{"ha":656,"x_min":15,"x_max":640,"o":"m 494 754 q 414 605 456 676 q 332 457 372 533 q 245 605 288 532 q 156 751 203 678 q 126 747 150 758 q 78 716 103 735 q 34 678 53 697 q 19 651 15 658 q 75 556 46 606 q 133 457 104 507 q 192 358 163 407 q 247 264 221 308 q 247 200 247 226 q 247 148 247 174 q 248 91 247 122 q 249 11 249 60 q 273 3 249 6 q 326 0 297 0 q 380 3 356 0 q 404 11 404 6 q 406 103 406 68 q 407 164 407 139 q 406 209 407 189 q 406 257 406 229 q 461 356 431 304 q 523 460 492 407 q 583 566 554 514 q 636 665 613 618 q 620 691 640 674 q 573 725 600 708 q 522 751 546 742 q 494 754 499 761 "},"z":{"ha":682,"x_min":31,"x_max":651,"o":"m 633 165 l 633 165 l 276 165 q 359 267 319 218 q 440 367 399 317 q 526 473 482 418 q 625 590 571 528 q 634 625 631 599 q 637 681 638 651 q 633 732 636 710 q 621 754 629 754 q 555 753 599 754 q 457 753 511 753 q 342 753 403 753 q 226 753 282 753 q 122 753 169 753 q 47 754 75 754 q 35 728 39 754 q 31 670 31 701 q 35 613 31 639 q 47 588 39 588 q 101 587 64 588 q 186 586 138 586 q 291 586 235 586 q 401 586 347 586 q 222 369 314 478 q 50 161 131 261 q 42 128 44 154 q 40 74 39 103 q 44 22 40 44 q 57 -1 49 -1 q 132 -1 85 -1 q 236 0 179 0 q 354 0 293 0 q 470 0 415 0 q 569 -1 525 0 q 635 -1 613 -1 q 647 24 643 -1 q 651 81 651 50 q 647 139 651 113 q 633 165 642 165 "},"Œ":{"ha":1104,"x_min":26,"x_max":1072,"o":"m 1056 168 q 990 168 1036 168 q 883 168 943 168 q 757 168 824 168 q 632 168 690 168 l 632 357 l 908 357 q 922 383 917 357 q 928 441 926 410 q 926 499 929 472 q 914 525 922 525 l 632 525 l 632 804 l 1056 804 q 1068 830 1064 804 q 1072 887 1072 856 q 1068 944 1072 918 q 1056 971 1064 971 q 1001 971 1046 971 q 891 971 957 971 q 742 971 825 971 q 573 971 660 971 q 401 971 486 971 q 244 971 315 971 q 119 971 172 971 q 46 971 67 971 q 30 964 33 971 q 26 950 26 957 l 26 835 l 26 21 q 34 5 26 10 q 46 0 42 0 l 1056 0 q 1068 26 1064 0 q 1072 84 1072 53 q 1068 142 1072 115 q 1056 168 1064 168 m 469 171 l 189 171 l 189 804 l 469 804 q 469 653 469 736 q 468 485 468 571 q 469 319 468 400 q 469 171 469 238 "},"Æ":{"ha":1093,"x_min":26,"x_max":1063,"o":"m 1046 169 l 626 169 l 626 358 q 699 358 658 358 q 778 357 739 357 q 849 358 817 357 q 899 358 882 358 q 912 384 907 358 q 918 441 917 410 q 917 499 919 472 q 906 525 914 525 l 626 525 q 625 674 625 603 q 625 804 625 746 l 1046 804 q 1058 830 1054 804 q 1063 887 1063 856 q 1058 944 1063 918 q 1046 971 1054 971 q 988 971 1036 971 q 868 971 940 971 q 708 971 796 971 q 529 971 619 971 l 53 971 q 35 964 43 971 q 26 942 26 957 l 26 17 q 52 4 26 8 q 108 0 78 0 q 165 4 139 0 q 190 17 190 8 q 189 155 189 64 q 189 358 189 246 q 250 358 214 358 q 324 358 286 358 q 399 357 363 357 q 461 357 435 357 l 461 31 q 466 10 461 19 q 488 1 471 1 l 1046 1 q 1058 28 1054 1 q 1063 85 1063 54 q 1058 143 1063 117 q 1046 169 1054 169 m 461 525 l 189 525 l 189 804 l 461 804 l 461 525 "},"œ":{"ha":1099,"x_min":26,"x_max":1065,"o":"m 1049 165 l 632 165 l 632 274 q 753 274 689 274 q 874 273 817 274 q 978 272 932 272 q 1049 272 1025 272 q 1063 281 1060 272 q 1065 296 1065 290 l 1065 725 q 1062 744 1065 733 q 1043 754 1058 754 l 53 754 q 31 743 35 754 q 26 718 26 732 l 26 19 q 31 6 26 13 q 44 0 35 0 l 1050 0 q 1062 26 1058 0 q 1065 82 1065 51 q 1061 139 1065 113 q 1049 165 1057 165 m 632 589 l 899 589 l 899 440 l 632 440 l 632 589 m 464 167 l 189 167 l 189 588 l 463 588 q 463 488 463 542 q 463 377 463 433 q 464 267 464 321 q 464 167 464 213 "},"æ":{"ha":1108,"x_min":25,"x_max":1075,"o":"m 1057 164 q 992 164 1039 164 q 886 164 946 164 q 760 164 826 164 q 635 164 693 164 q 635 217 635 190 q 635 272 636 244 l 1057 272 q 1072 281 1068 272 q 1075 296 1075 289 l 1075 724 q 1072 744 1075 732 q 1053 756 1068 756 l 600 756 l 94 756 q 82 729 86 756 q 77 671 78 703 q 80 613 76 639 q 92 586 83 586 l 460 586 l 460 442 l 44 442 q 28 432 32 442 q 25 411 25 422 l 25 22 q 29 7 25 14 q 44 0 33 0 l 1058 0 q 1071 26 1067 0 q 1074 82 1075 51 q 1069 138 1074 113 q 1057 164 1065 164 m 460 165 l 188 165 l 188 275 l 460 275 l 460 165 m 635 588 l 907 588 l 907 439 l 635 439 q 635 515 636 478 q 635 588 635 551 "},"Ç":{"ha":640,"x_min":21,"x_max":622,"o":"m 606 168 l 606 168 l 183 168 q 183 316 183 235 q 183 482 183 397 q 184 649 183 567 q 185 803 185 732 q 306 803 242 803 q 429 803 371 803 q 535 802 488 803 q 606 801 582 801 q 618 828 614 801 q 622 885 622 854 q 618 942 622 917 q 606 968 614 968 l 47 968 q 26 959 31 969 q 21 938 21 949 l 21 28 q 26 8 21 17 q 42 0 31 0 l 261 0 l 261 -183 q 274 -195 261 -192 q 304 -199 288 -199 q 335 -194 321 -199 q 353 -183 350 -190 q 387 -90 367 -136 q 418 0 407 -44 l 606 0 q 618 26 614 0 q 622 84 622 53 q 618 142 622 115 q 606 168 614 168 "},"ç":{"ha":646,"x_min":19,"x_max":628,"o":"m 611 169 q 544 169 592 169 q 435 170 497 169 q 307 171 374 171 q 182 171 240 171 l 182 590 l 611 590 q 624 616 619 590 q 628 673 628 642 q 624 731 628 704 q 611 757 619 757 l 46 757 q 26 747 32 757 q 19 729 19 738 l 19 31 q 24 10 19 19 q 40 1 29 1 l 250 1 q 250 -76 250 -42 q 249 -158 250 -111 q 262 -171 249 -167 q 292 -175 275 -175 q 323 -171 308 -175 q 340 -158 338 -167 q 369 -78 351 -118 q 400 1 386 -37 l 610 1 q 622 28 618 1 q 626 85 626 54 q 623 143 626 117 q 611 169 619 169 "},"€":{"ha":664,"x_min":3,"x_max":639,"o":"m 625 181 q 578 176 608 178 q 510 172 547 174 q 433 171 472 171 q 360 174 393 171 q 305 184 328 178 q 279 201 282 190 q 269 245 274 221 q 261 297 264 269 l 399 297 q 407 315 404 297 q 410 353 410 332 q 407 391 410 374 q 399 408 404 408 q 342 409 383 408 q 251 410 301 410 q 249 448 250 429 q 249 486 249 467 l 399 486 q 407 503 404 486 q 410 542 410 521 q 407 580 410 563 q 399 597 404 597 q 342 598 383 597 q 250 599 301 599 q 260 703 253 657 q 279 774 268 750 q 331 794 286 786 q 433 807 376 803 q 544 810 489 811 q 625 800 599 808 q 635 824 632 797 q 639 881 639 850 q 635 940 639 913 q 625 967 632 967 q 566 969 608 967 q 469 973 524 972 q 356 969 415 974 q 246 950 297 964 q 159 910 194 936 q 118 842 124 885 q 108 738 111 801 q 104 599 106 674 q 49 597 72 597 q 14 597 25 597 q 6 580 8 597 q 3 542 3 563 q 6 503 3 521 q 14 486 8 486 l 104 486 q 104 448 104 467 q 106 410 104 429 q 49 408 74 408 q 14 408 25 408 q 6 391 8 408 q 3 353 3 374 q 6 315 3 332 q 14 297 8 297 l 108 297 q 122 144 114 210 q 143 56 131 79 q 190 26 154 38 q 272 8 225 15 q 374 0 319 1 q 478 1 428 -1 q 567 11 528 4 q 625 28 607 18 q 635 57 632 32 q 639 110 639 82 q 635 160 639 138 q 625 181 632 182 "},"$":{"ha":563,"x_min":0,"x_max":546,"o":"m 544 18 l 544 443 q 537 460 544 454 q 521 465 529 465 l 342 465 q 342 595 342 532 q 343 717 343 658 l 531 717 q 541 740 538 717 q 545 792 544 764 q 542 844 546 821 q 531 867 539 867 l 343 867 l 343 907 q 322 919 343 915 q 277 924 301 924 q 232 919 253 924 q 211 907 211 915 q 210 888 211 900 q 210 867 210 876 l 29 867 q 8 856 11 867 q 4 840 4 846 l 4 342 q 11 324 4 332 q 28 315 18 315 q 58 315 33 315 q 113 316 82 315 q 171 317 143 317 q 210 317 199 317 l 210 149 q 97 149 149 149 q 15 150 44 149 q 4 126 8 150 q 0 75 0 103 q 4 24 0 47 q 15 0 8 0 l 210 0 q 210 -17 210 -10 q 211 -32 211 -25 q 232 -44 211 -40 q 277 -47 253 -47 q 322 -44 301 -47 q 343 -32 343 -40 l 343 0 l 531 0 q 542 6 540 0 q 544 18 544 11 m 210 717 l 210 465 l 150 465 q 150 717 147 583 l 210 717 m 342 317 l 397 317 l 397 149 l 343 149 q 343 230 343 188 q 342 317 343 272 "},"!":{"ha":219,"x_min":0,"x_max":203,"o":"m 186 167 q 139 167 158 167 q 101 168 119 168 q 63 167 83 168 q 17 167 43 167 q 4 140 8 167 q 0 83 0 114 q 4 26 0 51 q 17 0 8 0 l 186 0 q 199 26 194 0 q 203 83 203 51 q 199 140 203 114 q 186 167 194 167 m 17 232 l 186 232 q 194 264 190 232 q 199 348 197 296 q 202 467 201 400 q 203 603 203 533 q 201 740 203 674 q 198 860 200 807 q 193 944 196 913 q 186 976 190 976 q 139 977 158 976 q 101 978 119 978 q 63 977 83 978 q 17 976 43 976 q 9 944 13 976 q 3 860 6 913 q 1 740 1 807 q 0 603 0 674 q 1 467 0 533 q 3 348 1 400 q 9 264 6 296 q 17 232 13 232 "},"¡":{"ha":231,"x_min":4,"x_max":207,"o":"m 190 813 q 143 812 163 813 q 106 811 124 811 q 67 812 88 811 q 21 813 47 813 q 8 839 13 813 q 4 897 4 865 q 8 953 4 928 q 21 979 13 979 l 190 979 q 203 953 199 979 q 207 897 207 928 q 203 839 207 865 q 190 813 199 813 m 21 747 l 190 747 q 198 715 194 747 q 203 631 201 683 q 206 513 206 579 q 207 376 207 446 q 206 239 207 306 q 202 119 204 172 q 197 35 200 67 q 190 3 194 3 q 143 2 163 3 q 106 1 124 1 q 67 2 88 1 q 21 3 47 3 q 13 35 17 3 q 8 119 10 67 q 5 239 6 172 q 4 376 4 306 q 5 513 4 446 q 8 631 6 579 q 13 715 10 683 q 21 747 17 747 "},"?":{"ha":636,"x_min":1,"x_max":618,"o":"m 175 156 l 17 156 q 5 131 8 156 q 1 78 1 107 q 5 24 1 49 q 17 0 8 0 l 175 0 q 187 24 183 0 q 190 78 190 49 q 186 131 190 107 q 175 156 182 156 m 592 975 l 33 975 q 21 949 25 975 q 17 890 17 922 q 20 832 17 858 q 32 806 24 806 l 456 806 q 456 525 458 658 l 40 525 q 23 517 29 525 q 17 497 17 508 l 17 232 l 181 233 q 181 269 181 256 q 181 294 181 283 q 180 319 181 306 q 179 358 179 333 q 242 358 203 358 q 325 358 281 358 q 415 358 369 358 q 497 358 460 358 q 561 358 535 358 q 592 358 588 358 q 612 364 606 358 q 618 386 618 369 l 618 944 q 612 966 618 957 q 592 975 606 975 "},":":{"ha":254,"x_min":0,"x_max":189,"o":"m 15 221 q 72 222 54 221 q 102 222 90 222 q 128 222 114 222 q 174 221 142 221 q 185 247 182 221 q 189 303 189 272 q 185 361 189 335 q 174 388 181 388 q 131 388 149 388 q 95 389 113 389 q 59 388 78 389 q 15 388 40 388 q 3 361 7 388 q 0 303 0 335 q 3 247 0 272 q 15 221 7 221 m 174 167 q 131 167 149 167 q 95 168 113 168 q 59 167 78 168 q 15 167 40 167 q 3 140 7 167 q 0 83 0 114 q 3 26 0 51 q 15 0 7 0 l 174 0 q 185 26 182 0 q 189 83 189 51 q 185 140 189 114 q 174 167 181 167 "},";":{"ha":249,"x_min":0,"x_max":189,"o":"m 15 101 q 72 102 54 101 q 102 103 90 103 q 128 102 114 103 q 174 101 142 101 q 185 127 182 101 q 189 184 189 153 q 185 242 189 215 q 174 268 181 268 q 131 269 149 268 q 95 269 113 269 q 59 269 78 269 q 15 268 40 268 q 3 242 7 268 q 0 184 0 215 q 3 127 0 153 q 15 101 7 101 m 11 31 q 12 -69 11 -11 q 13 -185 13 -126 q 12 -298 13 -244 q 11 -385 11 -351 q 24 -397 11 -393 q 54 -401 38 -401 q 85 -397 71 -401 q 103 -385 100 -393 q 124 -294 111 -353 q 149 -173 138 -236 q 169 -53 161 -110 q 178 31 178 3 q 151 42 178 39 q 94 46 125 46 q 37 42 63 46 q 11 31 11 39 "},"'":{"ha":413,"x_min":1,"x_max":296,"o":"m 6 1063 q 10 1049 1 1057 q 29 1034 18 1040 q 53 1024 40 1028 q 69 1025 65 1021 q 122 1078 89 1043 q 190 1151 156 1113 q 253 1224 224 1189 q 293 1279 282 1260 q 280 1299 296 1285 q 242 1326 264 1313 q 201 1347 221 1339 q 178 1349 182 1354 q 138 1280 161 1319 q 89 1200 114 1240 q 42 1122 64 1160 q 6 1063 19 1085 "},"(":{"ha":396,"x_min":-1,"x_max":385,"o":"m 335 153 q 288 153 311 153 q 244 156 264 154 q 210 164 225 158 q 192 181 196 169 q 169 261 178 213 q 154 365 160 310 q 148 477 149 419 q 151 587 147 535 q 161 679 154 639 q 179 740 168 719 q 202 760 185 750 q 244 781 219 771 q 294 797 268 790 q 346 806 321 803 q 370 831 360 806 q 383 886 381 857 q 378 940 385 915 q 351 963 371 964 q 259 953 306 960 q 171 931 213 946 q 96 893 129 917 q 43 835 63 869 q 13 724 22 792 q 1 580 3 657 q 3 422 -1 503 q 15 272 7 342 q 33 149 22 201 q 54 76 43 97 q 94 32 71 47 q 150 10 117 17 q 228 1 183 3 q 333 0 272 0 q 366 24 356 0 q 376 76 376 47 q 364 129 375 106 q 335 153 353 153 "},")":{"ha":406,"x_min":14,"x_max":400,"o":"m 64 153 q 34 129 44 153 q 23 76 24 106 q 33 24 22 47 q 65 0 43 0 q 170 1 125 0 q 249 10 215 3 q 305 32 282 17 q 343 76 328 47 q 365 149 354 97 q 384 272 376 201 q 396 422 392 342 q 398 580 400 503 q 385 724 396 657 q 356 835 375 792 q 303 893 336 869 q 228 931 269 917 q 140 953 186 946 q 47 963 93 960 q 21 940 28 964 q 16 886 14 915 q 28 831 18 857 q 53 806 38 806 q 104 797 78 803 q 155 781 131 790 q 197 760 179 771 q 219 740 214 750 q 238 679 231 719 q 248 587 244 639 q 251 477 251 535 q 244 365 250 419 q 230 261 239 310 q 207 181 221 213 q 188 164 201 169 q 153 156 174 158 q 110 153 133 154 q 64 153 88 153 "},"+":{"ha":610,"x_min":0,"x_max":604,"o":"m 588 385 q 512 386 567 386 q 386 386 457 386 q 386 512 386 457 q 385 588 386 567 q 358 600 385 596 q 301 604 332 604 q 244 600 269 604 q 218 588 218 596 q 219 503 218 557 q 219 386 219 450 q 93 386 149 386 q 17 385 38 386 q 4 358 8 385 q 0 301 0 332 q 4 244 0 269 q 17 218 8 218 q 101 219 47 218 q 219 219 156 219 q 219 97 219 151 q 218 17 219 43 q 244 4 218 8 q 301 0 269 0 q 358 4 332 0 q 385 17 385 8 q 386 93 386 38 q 386 219 386 149 q 507 219 453 219 q 588 218 561 219 q 600 244 596 218 q 604 301 604 269 q 600 358 604 332 q 588 385 596 385 "},",":{"ha":210,"x_min":0,"x_max":133,"o":"m 0 24 l 0 24 l 0 -311 q 11 -322 0 -318 q 35 -325 22 -325 q 60 -322 49 -325 q 74 -311 72 -318 q 91 -239 81 -286 q 111 -141 101 -192 q 127 -44 121 -90 q 133 24 133 1 q 113 33 133 29 q 67 36 92 36 q 21 33 42 36 q 0 24 0 29 "},"-":{"ha":482,"x_min":19,"x_max":460,"o":"m 443 329 q 456 355 451 329 q 460 412 460 381 q 456 469 460 443 q 443 496 451 496 q 393 497 425 496 q 322 497 361 497 q 240 497 282 497 q 158 497 197 497 q 86 497 118 497 q 36 496 54 496 q 24 469 28 496 q 19 412 19 443 q 24 355 19 381 q 36 329 28 329 q 134 330 78 329 q 248 331 190 331 q 358 330 306 331 q 443 329 410 329 "},".":{"ha":278,"x_min":0,"x_max":203,"o":"m 17 0 l 186 0 q 199 26 194 0 q 203 83 203 51 q 199 140 203 114 q 186 167 194 167 q 139 167 158 167 q 101 168 119 168 q 63 167 83 168 q 17 167 43 167 q 4 140 8 167 q 0 83 0 114 q 4 26 0 51 q 17 0 8 0 "},"\\":{"ha":501,"x_min":-3,"x_max":485,"o":"m 482 60 q 443 165 468 97 q 388 318 418 233 q 324 497 357 403 q 258 678 290 590 q 199 844 226 767 q 154 971 172 921 q 126 974 151 979 q 72 959 100 969 q 20 936 43 949 q 0 915 -3 924 q 42 798 14 874 q 102 631 69 722 q 171 440 135 539 q 238 253 207 340 q 294 99 269 165 q 328 4 318 32 q 356 1 331 -4 q 411 16 382 6 q 463 39 440 26 q 482 60 485 51 "},"/":{"ha":499,"x_min":-3,"x_max":485,"o":"m 328 971 q 283 844 310 921 q 224 678 256 767 q 158 497 192 590 q 94 318 125 403 q 39 165 64 233 q 0 60 14 97 q 19 39 -3 51 q 71 16 42 26 q 126 1 100 6 q 154 4 151 -4 q 188 99 164 32 q 244 253 213 165 q 311 440 275 340 q 380 631 347 539 q 440 799 413 722 q 482 915 468 875 q 462 936 485 924 q 410 959 439 949 q 356 974 382 969 q 328 971 331 979 "},"<":{"ha":874,"x_min":-6,"x_max":844,"o":"m 838 128 q 729 192 794 153 q 589 277 664 232 q 435 370 514 322 q 286 461 357 418 q 435 552 357 504 q 589 646 514 600 q 729 731 664 692 q 838 794 794 769 q 835 821 844 799 q 812 867 826 843 q 782 908 797 890 q 760 922 767 926 q 668 867 733 907 q 519 776 603 828 q 344 669 435 725 q 177 568 253 614 q 52 492 101 522 q 1 461 3 461 q 1 454 -6 457 q 31 437 3 454 q 108 391 60 419 q 217 326 156 363 q 344 249 278 289 q 476 170 410 210 q 599 97 543 131 q 698 37 656 63 q 760 0 740 11 q 782 14 767 -4 q 812 56 797 32 q 835 102 826 81 q 838 128 844 124 "},">":{"ha":876,"x_min":19,"x_max":867,"o":"m 26 128 q 28 102 19 124 q 52 56 38 81 q 82 14 67 32 q 104 0 97 -4 q 166 37 124 11 q 265 97 208 63 q 388 170 321 131 q 520 249 454 210 q 647 326 586 289 q 756 391 708 363 q 833 437 804 419 q 863 454 861 454 q 861 461 867 458 q 831 479 860 461 q 756 526 803 497 q 647 592 708 554 q 520 669 586 629 q 388 750 454 710 q 265 825 322 790 q 166 885 208 860 q 104 922 124 911 q 82 908 97 926 q 52 867 67 890 q 28 821 38 843 q 26 794 19 799 q 133 731 68 769 q 274 646 199 692 q 428 552 349 600 q 578 461 507 504 q 428 370 507 418 q 274 277 349 322 q 133 192 199 232 q 26 128 68 153 "},"=":{"ha":631,"x_min":10,"x_max":614,"o":"m 26 367 q 101 367 54 367 q 204 368 149 368 q 320 368 260 368 q 435 368 381 368 q 532 367 489 368 q 597 367 575 367 q 610 393 606 367 q 614 451 614 419 q 610 508 614 482 q 597 535 606 535 l 26 535 q 14 508 18 535 q 10 451 10 482 q 14 393 10 419 q 26 367 18 367 m 597 167 q 535 167 579 167 q 433 168 490 168 q 312 168 376 168 q 190 168 247 168 q 89 167 133 168 q 26 167 44 167 q 14 140 18 167 q 10 83 10 114 q 14 26 10 51 q 26 0 18 0 l 597 0 q 610 26 606 0 q 614 83 614 51 q 610 140 614 114 q 597 167 606 167 "},"[":{"ha":399,"x_min":0,"x_max":365,"o":"m 350 167 l 350 167 l 163 167 l 163 796 q 269 796 218 796 q 344 797 321 796 q 358 823 353 797 q 364 880 363 849 q 362 938 365 911 q 350 964 358 964 l 142 964 q 82 968 118 968 q 22 964 46 968 l 17 964 q 13 961 15 964 q 0 951 0 956 l 0 19 q 8 11 0 15 q 17 0 13 0 q 86 0 40 0 q 183 0 132 0 q 278 0 233 0 q 344 0 324 0 q 358 26 353 0 q 364 83 363 51 q 362 140 365 114 q 350 167 358 167 "},"]":{"ha":389,"x_min":17,"x_max":382,"o":"m 382 19 l 382 951 q 369 961 382 956 q 365 964 367 964 l 360 964 q 300 968 336 968 q 240 964 264 968 l 31 964 q 19 938 22 964 q 18 880 17 911 q 24 823 19 849 q 38 797 29 797 q 113 796 61 796 q 219 796 164 796 l 219 167 l 31 167 q 19 140 22 167 q 18 83 17 114 q 24 26 19 51 q 38 0 29 0 q 103 0 58 0 q 199 0 149 0 q 296 0 250 0 q 365 0 342 0 q 374 11 369 0 q 382 19 382 15 "},"{":{"ha":496,"x_min":0,"x_max":458,"o":"m 408 153 q 361 153 385 153 q 318 156 338 154 q 284 164 299 158 q 265 181 269 169 q 238 263 249 219 q 225 375 228 307 q 213 391 225 381 q 186 413 200 401 q 160 436 172 425 q 147 453 147 447 q 159 465 147 456 q 185 483 171 474 q 210 500 199 492 q 222 511 222 508 q 228 653 221 597 q 251 740 236 708 q 275 760 257 750 q 317 781 293 771 q 368 797 342 790 q 419 806 394 803 q 444 831 433 806 q 456 886 454 857 q 451 940 458 915 q 424 963 443 964 q 331 953 378 960 q 243 931 285 946 q 168 893 201 917 q 117 835 135 869 q 81 700 90 778 q 74 518 71 622 q 62 502 74 513 q 37 481 50 492 q 12 459 24 469 q 0 443 0 449 q 12 430 0 439 q 38 410 24 421 q 64 391 51 400 q 76 378 76 382 q 97 184 82 261 q 128 76 113 107 q 167 32 144 47 q 224 10 190 17 q 301 1 257 3 q 407 0 346 0 q 440 24 429 0 q 449 76 450 47 q 438 129 449 106 q 408 153 426 153 "},"}":{"ha":514,"x_min":33,"x_max":492,"o":"m 83 153 q 53 129 64 153 q 42 76 43 106 q 52 24 42 47 q 85 0 63 0 q 190 1 144 0 q 268 10 235 3 q 324 32 301 17 q 363 76 347 47 q 394 184 379 107 q 415 378 408 261 q 427 391 415 382 q 453 410 439 400 q 480 430 468 421 q 492 443 492 439 q 480 459 492 449 q 455 481 468 469 q 430 502 442 492 q 418 518 418 513 q 411 700 421 622 q 375 835 401 778 q 322 893 356 869 q 247 931 289 917 q 159 953 206 946 q 67 963 113 960 q 40 940 47 964 q 35 886 33 915 q 47 831 38 857 q 72 806 57 806 q 124 797 97 803 q 174 781 150 790 q 216 760 199 771 q 239 740 233 750 q 269 511 271 679 q 281 500 269 508 q 307 483 293 492 q 332 465 321 474 q 343 453 343 456 q 331 436 343 447 q 306 413 319 425 q 279 391 292 401 q 267 375 267 381 q 253 263 263 307 q 226 181 243 219 q 207 164 221 169 q 173 156 193 158 q 130 153 153 154 q 83 153 107 153 "},"−":{"ha":617,"x_min":4,"x_max":608,"o":"m 592 217 q 604 242 600 217 q 608 299 608 268 q 604 357 608 331 q 592 383 600 383 q 529 384 574 383 q 428 385 485 385 q 306 385 371 385 q 185 385 242 385 q 83 384 128 385 q 21 383 39 383 q 8 357 13 383 q 4 299 4 331 q 8 242 4 268 q 21 217 13 217 q 96 217 49 217 q 199 218 143 218 q 315 218 254 218 q 429 218 375 218 q 526 217 483 218 q 592 217 569 217 "},"×":{"ha":596,"x_min":1,"x_max":590,"o":"m 428 290 q 526 388 482 344 q 585 449 569 432 q 574 478 590 454 q 533 526 557 501 q 485 567 508 550 q 454 578 461 585 q 389 512 431 554 q 297 419 347 469 q 199 518 243 475 q 139 578 156 561 q 108 567 132 583 q 60 526 85 550 q 19 478 36 501 q 8 447 1 454 q 75 381 32 424 q 167 290 118 339 l 8 132 q 10 115 4 128 q 30 87 17 103 q 60 54 43 71 q 94 24 78 38 q 122 4 110 11 q 139 1 135 -3 l 297 160 q 392 65 350 107 q 454 1 435 22 q 485 12 461 -6 q 533 53 508 29 q 574 101 557 78 q 585 132 590 125 q 526 192 569 149 q 428 290 482 235 "},"÷":{"ha":610,"x_min":0,"x_max":604,"o":"m 588 453 l 17 453 q 4 426 8 453 q 0 369 0 400 q 4 312 0 338 q 17 286 8 286 l 588 286 q 600 312 596 286 q 604 369 604 338 q 600 426 604 400 q 588 453 596 453 m 217 558 l 388 558 q 400 584 396 558 q 404 641 404 610 q 400 699 404 672 q 388 725 396 725 l 217 725 q 205 699 208 725 q 201 641 201 672 q 205 584 201 610 q 217 558 208 558 m 388 167 q 340 167 360 167 q 302 168 321 168 q 263 167 283 168 q 217 167 243 167 q 205 140 208 167 q 201 83 201 114 q 205 26 201 51 q 217 0 208 0 l 388 0 q 400 26 396 0 q 404 83 404 51 q 400 140 404 114 q 388 167 396 167 "},"±":{"ha":639,"x_min":7,"x_max":622,"o":"m 35 446 q 119 447 65 446 q 238 447 174 447 q 238 325 238 379 q 236 244 238 271 q 262 232 236 236 q 319 228 288 228 q 376 232 350 228 q 403 244 403 236 q 404 321 404 265 q 404 447 404 376 q 525 447 471 447 q 606 446 579 446 q 618 472 614 446 q 622 528 622 497 q 618 586 622 560 q 606 613 614 613 q 530 613 585 613 q 404 614 475 614 q 404 740 404 685 q 403 815 404 794 q 376 828 403 824 q 319 832 350 832 q 262 828 288 832 q 236 815 236 824 q 238 731 238 785 q 238 614 238 678 q 111 613 167 614 q 35 613 56 613 q 22 586 26 613 q 18 528 18 560 q 22 472 18 497 q 35 446 26 446 m 594 167 q 532 167 576 167 q 431 168 488 168 q 309 168 374 168 q 188 168 244 168 q 86 167 131 168 q 24 167 42 167 q 11 140 15 167 q 7 83 7 114 q 11 26 7 51 q 24 0 15 0 l 594 0 q 607 26 603 0 q 611 83 611 51 q 607 140 611 114 q 594 167 603 167 "},"`":{"ha":903,"x_min":153,"x_max":757,"o":"m 740 1039 q 753 1052 749 1039 q 757 1082 757 1065 q 753 1113 757 1099 q 740 1131 749 1128 q 674 1144 719 1136 q 571 1161 628 1153 q 451 1178 514 1169 q 331 1192 388 1186 q 231 1202 275 1199 q 169 1206 188 1206 q 157 1179 161 1206 q 153 1122 153 1153 q 157 1065 153 1090 q 169 1039 161 1039 q 244 1040 197 1039 q 347 1040 292 1040 q 463 1040 403 1040 q 578 1040 524 1040 q 675 1040 632 1040 q 740 1039 718 1039 "},"´":{"ha":890,"x_min":146,"x_max":750,"o":"m 161 1042 q 227 1042 183 1042 q 325 1043 271 1043 q 440 1043 379 1043 q 556 1043 500 1043 q 658 1042 611 1043 q 733 1042 706 1042 q 746 1067 742 1042 q 750 1124 750 1093 q 746 1182 750 1156 q 733 1208 742 1208 q 672 1205 715 1208 q 572 1195 628 1201 q 452 1181 515 1189 q 331 1164 389 1172 q 228 1147 274 1156 q 161 1133 182 1139 q 150 1116 154 1131 q 146 1085 146 1101 q 149 1055 146 1068 q 161 1042 153 1042 "},"ˆ":{"ha":869,"x_min":144,"x_max":738,"o":"m 436 1096 q 484 1090 446 1097 q 569 1073 522 1083 q 658 1052 615 1063 q 722 1035 701 1042 q 734 1057 731 1032 q 738 1113 738 1082 q 733 1172 738 1144 q 722 1201 729 1199 q 660 1217 701 1207 q 575 1237 619 1226 q 492 1255 531 1247 q 436 1263 453 1263 q 380 1256 419 1263 q 297 1238 340 1249 q 215 1217 253 1228 q 160 1201 176 1207 q 148 1171 151 1199 q 144 1112 144 1143 q 149 1056 144 1081 q 160 1035 153 1031 q 223 1055 181 1044 q 309 1074 265 1065 q 389 1089 353 1083 q 436 1096 425 1094 "},"¨":{"ha":846,"x_min":142,"x_max":713,"o":"m 328 1206 l 158 1206 q 146 1179 150 1206 q 142 1122 142 1153 q 146 1065 142 1090 q 158 1039 150 1039 l 328 1039 q 340 1065 336 1039 q 344 1122 344 1090 q 340 1179 344 1153 q 328 1206 336 1206 m 696 1206 l 525 1206 q 513 1179 517 1206 q 510 1122 510 1153 q 513 1065 510 1090 q 525 1039 517 1039 l 696 1039 q 708 1065 704 1039 q 713 1122 713 1090 q 708 1179 713 1153 q 696 1206 704 1206 "},"˜":{"ha":890,"x_min":150,"x_max":750,"o":"m 735 1042 q 747 1070 743 1043 q 750 1129 750 1097 q 746 1186 750 1161 q 735 1208 742 1211 q 639 1192 690 1192 q 534 1202 588 1193 q 428 1223 481 1211 q 326 1240 375 1235 q 235 1240 276 1246 q 163 1208 193 1235 q 153 1174 156 1203 q 150 1115 150 1146 q 153 1060 150 1083 q 163 1042 156 1038 q 254 1081 207 1071 q 350 1088 301 1090 q 448 1074 399 1085 q 547 1054 497 1064 q 643 1039 596 1044 q 735 1042 690 1033 "},"¿":{"ha":636,"x_min":0,"x_max":617,"o":"m 443 821 l 601 821 q 613 845 610 821 q 617 899 617 869 q 613 952 617 928 q 601 976 610 976 l 443 976 q 431 952 435 976 q 428 899 428 928 q 432 845 428 869 q 443 821 436 821 m 26 1 l 585 1 q 597 28 593 1 q 601 86 601 54 q 598 144 601 118 q 586 171 594 171 l 163 171 q 163 451 160 318 l 578 451 q 595 460 589 451 q 601 479 601 468 l 601 744 l 438 743 q 438 707 438 721 q 438 682 438 693 q 438 657 438 671 q 439 618 439 643 q 376 618 415 618 q 293 618 338 618 q 203 618 249 618 q 121 618 158 618 q 57 618 83 618 q 26 618 31 618 q 6 613 13 618 q 0 590 0 607 l 0 32 q 6 10 0 20 q 26 1 13 1 "},"D":{"ha":704,"x_min":49,"x_max":658,"o":"m 658 22 l 658 940 q 638 969 658 969 q 575 969 619 969 q 473 969 531 969 q 351 969 415 969 q 230 969 288 969 q 128 969 172 969 q 65 969 83 969 q 53 943 57 969 q 49 885 49 917 q 53 828 49 854 q 65 803 57 803 l 79 803 l 79 168 l 65 168 q 53 142 57 168 q 49 84 49 115 q 53 26 49 53 q 65 0 57 0 l 636 0 q 653 7 649 0 q 658 22 658 14 m 494 168 l 242 168 l 242 803 l 494 803 l 494 168 "},"à":{"ha":651,"x_min":24,"x_max":636,"o":"m 622 710 q 622 740 622 724 q 607 756 621 756 q 549 756 589 756 q 458 756 508 756 q 350 756 407 756 q 242 756 293 756 q 151 756 192 756 q 93 756 111 756 q 81 729 85 756 q 76 671 76 703 q 78 613 75 639 q 90 586 82 586 l 458 586 l 458 442 l 43 442 q 27 432 31 442 q 24 411 24 422 l 24 22 q 28 7 24 14 q 43 0 32 0 l 604 0 q 619 11 615 0 q 622 35 622 22 q 622 70 622 39 q 622 149 622 101 q 622 257 622 197 q 622 378 622 317 q 622 499 622 440 q 622 605 622 558 q 622 680 622 651 q 622 710 622 708 m 458 165 l 186 165 l 186 275 l 458 275 l 458 165 m 621 876 q 633 890 629 876 q 637 919 637 903 q 633 951 637 936 q 621 968 629 965 q 559 982 602 974 q 463 999 516 990 q 350 1015 409 1007 q 239 1030 291 1024 q 145 1040 186 1036 q 88 1043 104 1043 q 76 1017 80 1043 q 72 959 72 990 q 76 902 72 928 q 88 876 80 876 q 158 877 114 876 q 254 878 202 878 q 362 878 306 878 q 469 878 419 878 q 560 877 520 878 q 621 876 600 876 "},"á":{"ha":651,"x_min":24,"x_max":636,"o":"m 622 710 q 622 740 622 724 q 607 756 621 756 q 549 756 589 756 q 458 756 508 756 q 350 756 407 756 q 242 756 293 756 q 151 756 192 756 q 93 756 111 756 q 81 729 85 756 q 76 671 76 703 q 78 613 75 639 q 90 586 82 586 l 458 586 l 458 442 l 43 442 q 27 432 31 442 q 24 411 24 422 l 24 22 q 28 7 24 14 q 43 0 32 0 l 604 0 q 619 11 615 0 q 622 35 622 22 q 622 70 622 39 q 622 149 622 101 q 622 257 622 197 q 622 378 622 317 q 622 499 622 440 q 622 605 622 558 q 622 680 622 651 q 622 710 622 708 m 458 165 l 186 165 l 186 275 l 458 275 l 458 165 m 106 876 q 166 877 126 876 q 254 878 205 878 q 357 878 303 878 q 462 878 412 878 q 554 877 512 878 q 622 876 597 876 q 633 902 629 876 q 637 959 637 928 q 633 1017 637 990 q 622 1043 629 1043 q 566 1040 605 1043 q 476 1030 527 1036 q 368 1015 425 1024 q 260 999 311 1007 q 166 982 208 990 q 106 968 125 974 q 96 951 100 965 q 92 919 92 936 q 96 890 92 903 q 106 876 99 876 "},"â":{"ha":651,"x_min":24,"x_max":624,"o":"m 622 710 q 622 740 622 724 q 607 756 621 756 q 549 756 589 756 q 458 756 508 756 q 350 756 407 756 q 242 756 293 756 q 151 756 192 756 q 93 756 111 756 q 81 729 85 756 q 76 671 76 703 q 78 613 75 639 q 90 586 82 586 l 458 586 l 458 442 l 43 442 q 27 432 31 442 q 24 411 24 422 l 24 22 q 28 7 24 14 q 43 0 32 0 l 604 0 q 619 11 615 0 q 622 35 622 22 q 622 70 622 39 q 622 149 622 101 q 622 257 622 197 q 622 378 622 317 q 622 499 622 440 q 622 605 622 558 q 622 680 622 651 q 622 710 622 708 m 458 165 l 186 165 l 186 275 l 458 275 l 458 165 m 347 947 q 391 942 356 949 q 469 924 426 935 q 551 903 512 914 q 610 886 591 893 q 621 908 618 883 q 624 965 624 933 q 620 1023 624 996 q 610 1053 616 1050 q 553 1068 591 1058 q 475 1088 516 1078 q 398 1106 434 1099 q 347 1114 362 1114 q 295 1107 332 1114 q 219 1090 259 1100 q 143 1069 178 1079 q 93 1053 108 1058 q 82 1022 85 1050 q 79 963 79 994 q 83 907 79 932 q 93 886 86 882 q 151 906 112 896 q 230 926 190 917 q 304 940 270 935 q 347 947 337 946 "},"ã":{"ha":651,"x_min":24,"x_max":624,"o":"m 622 710 q 622 740 622 724 q 607 756 621 756 q 549 756 589 756 q 458 756 508 756 q 350 756 407 756 q 242 756 293 756 q 151 756 192 756 q 93 756 111 756 q 81 729 85 756 q 76 671 76 703 q 78 613 75 639 q 90 586 82 586 l 458 586 l 458 442 l 43 442 q 27 432 31 442 q 24 411 24 422 l 24 22 q 28 7 24 14 q 43 0 32 0 l 604 0 q 619 11 615 0 q 622 35 622 22 q 622 70 622 39 q 622 149 622 101 q 622 257 622 197 q 622 378 622 317 q 622 499 622 440 q 622 605 622 558 q 622 680 622 651 q 622 710 622 708 m 458 165 l 186 165 l 186 275 l 458 275 l 458 165 m 610 877 q 620 906 617 879 q 624 966 624 934 q 620 1024 624 999 q 610 1047 616 1050 q 523 1031 569 1030 q 427 1041 476 1031 q 331 1062 379 1050 q 238 1080 283 1074 q 155 1080 193 1085 q 89 1047 117 1074 q 81 1012 83 1041 q 78 952 78 983 q 81 896 78 920 q 89 877 83 873 q 173 917 130 907 q 260 924 216 927 q 349 911 304 921 q 439 890 394 900 q 526 875 483 880 q 610 877 569 869 "},"ä":{"ha":651,"x_min":24,"x_max":622,"o":"m 622 710 q 622 740 622 724 q 607 756 621 756 q 549 756 589 756 q 458 756 508 756 q 350 756 407 756 q 242 756 293 756 q 151 756 192 756 q 93 756 111 756 q 81 729 85 756 q 76 671 76 703 q 78 613 75 639 q 90 586 82 586 l 458 586 l 458 442 l 43 442 q 27 432 31 442 q 24 411 24 422 l 24 22 q 28 7 24 14 q 43 0 32 0 l 604 0 q 619 11 615 0 q 622 35 622 22 q 622 70 622 39 q 622 149 622 101 q 622 257 622 197 q 622 378 622 317 q 622 499 622 440 q 622 605 622 558 q 622 680 622 651 q 622 710 622 708 m 458 165 l 186 165 l 186 275 l 458 275 l 458 165 m 259 1044 l 101 1044 q 89 1018 93 1044 q 85 960 85 992 q 89 903 85 929 q 101 878 93 878 l 259 878 q 271 903 267 878 q 275 960 275 929 q 271 1018 275 992 q 259 1044 267 1044 m 604 1044 l 444 1044 q 433 1018 436 1044 q 430 960 430 992 q 433 903 430 929 q 444 878 436 878 l 604 878 q 615 903 612 878 q 619 960 619 929 q 615 1018 619 992 q 604 1044 612 1044 "},"è":{"ha":661,"x_min":26,"x_max":631,"o":"m 189 272 l 611 272 q 625 281 622 272 q 628 296 628 289 l 628 724 q 625 744 628 732 q 607 756 622 756 l 54 756 q 32 744 38 756 q 26 721 26 732 l 26 32 q 31 10 26 21 q 51 0 35 0 l 613 0 q 625 26 621 0 q 628 82 629 51 q 624 138 628 113 q 611 164 619 164 q 546 164 592 164 q 440 164 500 164 q 313 164 379 164 q 189 164 247 164 l 189 272 m 189 588 l 461 588 l 461 439 l 189 439 l 189 588 m 614 876 q 626 890 622 876 q 631 919 631 903 q 626 951 631 936 q 614 968 622 965 q 547 982 593 974 q 444 999 501 990 q 324 1015 388 1007 q 205 1030 261 1024 q 105 1040 149 1036 q 43 1043 61 1043 q 31 1017 35 1043 q 26 959 26 990 q 31 902 26 928 q 43 876 35 876 q 118 877 71 876 q 221 878 165 878 q 337 878 276 878 q 451 878 397 878 q 549 877 506 878 q 614 876 592 876 "},"é":{"ha":661,"x_min":26,"x_max":632,"o":"m 189 272 l 611 272 q 625 281 622 272 q 628 296 628 289 l 628 724 q 625 744 628 732 q 607 756 622 756 l 54 756 q 32 744 38 756 q 26 721 26 732 l 26 32 q 31 10 26 21 q 51 0 35 0 l 613 0 q 625 26 621 0 q 628 82 629 51 q 624 138 628 113 q 611 164 619 164 q 546 164 592 164 q 440 164 500 164 q 313 164 379 164 q 189 164 247 164 l 189 272 m 189 588 l 461 588 l 461 439 l 189 439 l 189 588 m 43 876 q 109 877 65 876 q 207 878 153 878 q 322 878 261 878 q 438 878 382 878 q 540 877 493 878 q 615 876 588 876 q 628 902 624 876 q 632 959 632 928 q 628 1017 632 990 q 615 1043 624 1043 q 553 1040 597 1043 q 453 1030 510 1036 q 334 1015 397 1024 q 213 999 271 1007 q 110 982 156 990 q 43 968 64 974 q 32 951 36 965 q 28 919 28 936 q 31 890 28 903 q 43 876 35 876 "},"ê":{"ha":661,"x_min":26,"x_max":629,"o":"m 189 272 l 611 272 q 625 281 622 272 q 628 296 628 289 l 628 724 q 625 744 628 732 q 607 756 622 756 l 54 756 q 32 744 38 756 q 26 721 26 732 l 26 32 q 31 10 26 21 q 51 0 35 0 l 613 0 q 625 26 621 0 q 628 82 629 51 q 624 138 628 113 q 611 164 619 164 q 546 164 592 164 q 440 164 500 164 q 313 164 379 164 q 189 164 247 164 l 189 272 m 189 588 l 461 588 l 461 439 l 189 439 l 189 588 m 326 940 q 374 935 336 942 q 459 917 413 928 q 549 897 506 907 q 613 879 592 886 q 624 901 621 876 q 628 958 628 926 q 624 1016 628 989 q 613 1046 619 1043 q 551 1061 592 1051 q 465 1081 510 1071 q 382 1099 421 1092 q 326 1107 343 1107 q 270 1100 310 1107 q 187 1083 231 1093 q 105 1062 143 1072 q 50 1046 67 1051 q 38 1015 42 1043 q 35 956 35 988 q 39 900 35 925 q 50 879 43 875 q 113 899 71 889 q 199 919 156 910 q 279 933 243 928 q 326 940 315 939 "},"ë":{"ha":661,"x_min":26,"x_max":629,"o":"m 189 272 l 611 272 q 625 281 622 272 q 628 296 628 289 l 628 724 q 625 744 628 732 q 607 756 622 756 l 54 756 q 32 744 38 756 q 26 721 26 732 l 26 32 q 31 10 26 21 q 51 0 35 0 l 613 0 q 625 26 621 0 q 628 82 629 51 q 624 138 628 113 q 611 164 619 164 q 546 164 592 164 q 440 164 500 164 q 313 164 379 164 q 189 164 247 164 l 189 272 m 189 588 l 461 588 l 461 439 l 189 439 l 189 588 m 236 1043 l 67 1043 q 54 1017 58 1043 q 50 959 50 990 q 54 902 50 928 q 67 876 58 876 l 236 876 q 249 902 244 876 q 253 959 253 928 q 249 1017 253 990 q 236 1043 244 1043 m 604 1043 l 433 1043 q 422 1017 425 1043 q 418 959 418 990 q 422 902 418 928 q 433 876 425 876 l 604 876 q 617 902 613 876 q 621 959 621 928 q 617 1017 621 990 q 604 1043 613 1043 "},"ì":{"ha":215,"x_min":-61,"x_max":278,"o":"m 190 744 q 165 757 190 753 q 108 761 139 761 q 52 757 78 761 q 26 744 26 753 l 26 17 q 52 4 26 8 q 108 0 78 0 q 165 4 139 0 q 190 17 190 8 q 190 166 190 74 q 189 361 189 258 q 190 565 189 464 q 190 744 190 667 m 269 876 q 276 889 274 876 q 279 919 279 902 q 276 950 279 935 q 269 967 274 964 q 232 981 258 973 q 174 997 206 989 q 107 1014 142 1006 q 40 1028 71 1022 q -16 1038 8 1035 q -51 1041 -41 1041 q -58 1015 -55 1041 q -60 958 -60 989 q -58 902 -60 927 q -51 876 -55 876 q -9 877 -35 876 q 49 878 18 878 q 114 878 80 878 q 178 878 148 878 q 233 877 209 878 q 269 876 257 876 "},"í":{"ha":215,"x_min":-62,"x_max":281,"o":"m 190 744 q 165 757 190 753 q 108 761 139 761 q 52 757 78 761 q 26 744 26 753 l 26 17 q 52 4 26 8 q 108 0 78 0 q 165 4 139 0 q 190 17 190 8 q 190 166 190 74 q 189 361 189 258 q 190 565 189 464 q 190 744 190 667 m -53 876 q -16 877 -40 876 q 40 878 9 878 q 105 878 71 878 q 171 878 139 878 q 229 877 202 878 q 272 876 256 876 q 279 902 277 876 q 281 958 281 927 q 279 1015 281 989 q 272 1041 277 1041 q 237 1038 262 1041 q 180 1028 212 1035 q 112 1014 148 1022 q 44 997 76 1006 q -15 981 11 989 q -53 967 -41 973 q -59 950 -57 964 q -62 919 -62 935 q -60 889 -62 902 q -53 876 -58 876 "},"î":{"ha":215,"x_min":-65,"x_max":282,"o":"m 190 744 q 165 757 190 753 q 108 761 139 761 q 52 757 78 761 q 26 744 26 753 l 26 17 q 52 4 26 8 q 108 0 78 0 q 165 4 139 0 q 190 17 190 8 q 190 166 190 74 q 189 361 189 258 q 190 565 189 464 q 190 744 190 667 m 106 927 q 134 921 112 928 q 184 905 157 915 q 237 885 211 895 q 274 869 262 876 q 281 890 279 866 q 283 943 283 913 q 281 998 283 972 q 274 1026 278 1023 q 238 1040 262 1031 q 188 1059 214 1049 q 139 1076 162 1069 q 106 1084 116 1084 q 73 1077 96 1084 q 24 1061 50 1070 q -24 1041 -2 1051 q -56 1026 -46 1031 q -63 997 -61 1023 q -65 942 -65 971 q -63 889 -65 912 q -56 869 -60 865 q -19 888 -44 878 q 31 906 6 898 q 78 920 57 915 q 106 927 100 925 "},"ï":{"ha":215,"x_min":-72,"x_max":283,"o":"m 190 744 q 165 757 190 753 q 108 761 139 761 q 52 757 78 761 q 26 744 26 753 l 26 17 q 52 4 26 8 q 108 0 78 0 q 165 4 139 0 q 190 17 190 8 q 190 166 190 74 q 189 361 189 258 q 190 565 189 464 q 190 744 190 667 m 44 1028 l -61 1028 q -69 1004 -66 1028 q -71 952 -71 980 q -69 901 -71 924 q -61 878 -66 878 l 44 878 q 52 901 50 878 q 55 952 55 924 q 52 1004 55 980 q 44 1028 50 1028 m 274 1028 l 167 1028 q 160 1004 162 1028 q 158 952 158 980 q 160 901 158 924 q 167 878 162 878 l 274 878 q 282 901 279 878 q 284 952 284 924 q 282 1004 284 980 q 274 1028 279 1028 "},"ñ":{"ha":663,"x_min":26,"x_max":633,"o":"m 632 738 q 606 753 632 749 q 551 758 581 758 q 495 751 521 757 q 469 738 469 746 q 469 654 469 703 q 469 550 469 606 q 469 434 469 494 q 468 315 468 374 q 426 374 449 342 q 381 442 404 407 q 335 512 358 476 q 292 581 313 547 q 190 738 242 657 q 160 753 186 747 q 103 760 133 760 q 50 754 74 760 q 26 738 26 749 l 26 17 q 52 4 26 8 q 108 0 78 0 q 165 4 139 0 q 190 17 190 8 q 190 98 190 51 q 189 199 189 144 q 189 315 189 254 q 189 436 189 375 q 277 309 232 374 q 362 187 322 244 q 431 84 401 129 q 472 14 460 39 q 501 4 475 7 q 556 1 526 1 q 608 5 585 1 q 632 17 632 8 q 633 168 633 78 q 633 358 633 258 q 633 558 633 458 q 632 738 632 658 m 617 908 q 628 937 625 910 q 632 996 632 964 q 628 1053 632 1028 q 617 1075 624 1078 q 521 1059 572 1058 q 416 1069 469 1060 q 310 1090 363 1078 q 208 1107 257 1101 q 117 1107 158 1113 q 44 1075 75 1101 q 35 1041 38 1069 q 32 981 32 1013 q 35 927 32 950 q 44 908 38 904 q 136 947 89 938 q 232 954 183 957 q 330 941 281 951 q 428 921 379 931 q 525 906 478 911 q 617 908 572 900 "},"ò":{"ha":658,"x_min":26,"x_max":632,"o":"m 632 19 l 632 129 q 632 273 632 196 q 632 429 632 350 q 632 583 632 508 q 632 719 632 658 q 626 743 632 732 q 607 754 619 754 l 53 754 q 31 743 35 754 q 26 718 26 732 l 26 19 q 31 6 26 13 q 44 0 35 0 l 617 0 q 628 6 624 0 q 632 19 632 13 m 468 167 l 189 167 l 189 588 l 468 588 l 468 167 m 615 878 q 628 891 624 878 q 632 921 632 904 q 628 952 632 938 q 615 969 624 967 q 549 983 594 975 q 446 1000 503 992 q 326 1017 389 1008 q 206 1031 263 1025 q 106 1041 150 1038 q 44 1044 63 1044 q 32 1018 36 1044 q 28 960 28 992 q 32 903 28 929 q 44 878 36 878 q 119 878 72 878 q 222 879 167 879 q 338 879 278 879 q 453 879 399 879 q 550 878 507 879 q 615 878 593 878 "},"ó":{"ha":658,"x_min":26,"x_max":633,"o":"m 632 19 l 632 129 q 632 273 632 196 q 632 429 632 350 q 632 583 632 508 q 632 719 632 658 q 626 743 632 732 q 607 754 619 754 l 53 754 q 31 743 35 754 q 26 718 26 732 l 26 19 q 31 6 26 13 q 44 0 35 0 l 617 0 q 628 6 624 0 q 632 19 632 13 m 468 167 l 189 167 l 189 588 l 468 588 l 468 167 m 44 876 q 110 877 67 876 q 208 878 154 878 q 323 878 263 878 q 439 878 383 878 q 542 877 494 878 q 617 876 589 876 q 629 902 625 876 q 633 959 633 928 q 629 1017 633 990 q 617 1043 625 1043 q 555 1040 599 1043 q 455 1030 511 1036 q 335 1015 399 1024 q 215 999 272 1007 q 111 982 157 990 q 44 968 65 974 q 33 951 38 965 q 29 919 29 936 q 33 890 29 903 q 44 876 36 876 "},"ô":{"ha":658,"x_min":26,"x_max":632,"o":"m 632 19 l 632 129 q 632 273 632 196 q 632 429 632 350 q 632 583 632 508 q 632 719 632 658 q 626 743 632 732 q 607 754 619 754 l 53 754 q 31 743 35 754 q 26 718 26 732 l 26 19 q 31 6 26 13 q 44 0 35 0 l 617 0 q 628 6 624 0 q 632 19 632 13 m 468 167 l 189 167 l 189 588 l 468 588 l 468 167 m 325 947 q 373 942 335 949 q 458 924 411 935 q 547 903 504 914 q 611 886 590 893 q 623 908 619 883 q 626 965 626 933 q 622 1023 626 996 q 611 1053 618 1050 q 549 1068 590 1058 q 464 1088 508 1078 q 381 1106 419 1099 q 325 1114 342 1114 q 269 1107 308 1114 q 185 1090 229 1100 q 103 1069 142 1079 q 49 1053 65 1058 q 37 1022 40 1050 q 33 963 33 994 q 38 907 33 932 q 49 886 42 882 q 112 906 69 896 q 198 926 154 917 q 278 940 242 935 q 325 947 314 946 "},"õ":{"ha":658,"x_min":26,"x_max":632,"o":"m 632 19 l 632 129 q 632 273 632 196 q 632 429 632 350 q 632 583 632 508 q 632 719 632 658 q 626 743 632 732 q 607 754 619 754 l 53 754 q 31 743 35 754 q 26 718 26 732 l 26 19 q 31 6 26 13 q 44 0 35 0 l 617 0 q 628 6 624 0 q 632 19 632 13 m 468 167 l 189 167 l 189 588 l 468 588 l 468 167 m 614 908 q 626 937 622 910 q 629 996 629 964 q 625 1053 629 1028 q 614 1075 621 1078 q 518 1059 569 1058 q 413 1069 467 1060 q 307 1090 360 1078 q 205 1107 254 1101 q 114 1107 156 1113 q 42 1075 72 1101 q 32 1041 35 1069 q 29 981 29 1013 q 32 927 29 950 q 42 908 35 904 q 133 947 86 938 q 229 954 181 957 q 327 941 278 951 q 426 921 376 931 q 522 906 475 911 q 614 908 569 900 "},"ö":{"ha":658,"x_min":26,"x_max":632,"o":"m 632 19 l 632 129 q 632 273 632 196 q 632 429 632 350 q 632 583 632 508 q 632 719 632 658 q 626 743 632 732 q 607 754 619 754 l 53 754 q 31 743 35 754 q 26 718 26 732 l 26 19 q 31 6 26 13 q 44 0 35 0 l 617 0 q 628 6 624 0 q 632 19 632 13 m 468 167 l 189 167 l 189 588 l 468 588 l 468 167 m 232 1044 l 63 1044 q 50 1018 54 1044 q 46 960 46 992 q 50 903 46 929 q 63 878 54 878 l 232 878 q 244 903 240 878 q 249 960 249 929 q 244 1018 249 992 q 232 1044 240 1044 m 600 1044 l 429 1044 q 417 1018 421 1044 q 414 960 414 992 q 417 903 414 929 q 429 878 421 878 l 600 878 q 613 903 608 878 q 617 960 617 929 q 613 1018 617 992 q 600 1044 608 1044 "},"ù":{"ha":658,"x_min":26,"x_max":632,"o":"m 632 739 q 606 751 632 747 q 551 756 581 756 q 495 751 521 756 q 469 739 469 747 q 469 624 469 693 q 468 475 468 554 q 468 315 468 396 q 468 167 468 233 l 189 167 q 189 310 189 233 q 189 463 189 386 q 189 610 189 539 q 189 739 189 682 q 163 751 189 747 q 108 756 138 756 q 52 751 78 756 q 26 739 26 747 l 26 19 q 43 0 26 0 l 615 0 q 627 5 622 0 q 632 19 632 10 q 632 64 632 21 q 632 173 632 107 q 632 321 632 239 q 632 482 632 403 q 632 630 632 561 q 632 739 632 699 m 615 876 q 628 890 624 876 q 632 919 632 903 q 628 951 632 936 q 615 968 624 965 q 549 982 594 974 q 446 999 503 990 q 326 1015 389 1007 q 206 1030 263 1024 q 106 1040 150 1036 q 44 1043 63 1043 q 32 1017 36 1043 q 28 959 28 990 q 32 902 28 928 q 44 876 36 876 q 119 877 72 876 q 222 878 167 878 q 338 878 278 878 q 453 878 399 878 q 550 877 507 878 q 615 876 593 876 "},"ú":{"ha":658,"x_min":26,"x_max":633,"o":"m 632 739 q 606 751 632 747 q 551 756 581 756 q 495 751 521 756 q 469 739 469 747 q 469 624 469 693 q 468 475 468 554 q 468 315 468 396 q 468 167 468 233 l 189 167 q 189 310 189 233 q 189 463 189 386 q 189 610 189 539 q 189 739 189 682 q 163 751 189 747 q 108 756 138 756 q 52 751 78 756 q 26 739 26 747 l 26 19 q 43 0 26 0 l 615 0 q 627 5 622 0 q 632 19 632 10 q 632 64 632 21 q 632 173 632 107 q 632 321 632 239 q 632 482 632 403 q 632 630 632 561 q 632 739 632 699 m 44 876 q 110 877 67 876 q 208 878 154 878 q 323 878 263 878 q 439 878 383 878 q 542 877 494 878 q 617 876 589 876 q 629 902 625 876 q 633 959 633 928 q 629 1017 633 990 q 617 1043 625 1043 q 555 1040 599 1043 q 455 1030 511 1036 q 335 1015 399 1024 q 215 999 272 1007 q 111 982 157 990 q 44 968 65 974 q 33 951 38 965 q 29 919 29 936 q 33 890 29 903 q 44 876 36 876 "},"û":{"ha":658,"x_min":26,"x_max":632,"o":"m 632 739 q 606 751 632 747 q 551 756 581 756 q 495 751 521 756 q 469 739 469 747 q 469 624 469 693 q 468 475 468 554 q 468 315 468 396 q 468 167 468 233 l 189 167 q 189 310 189 233 q 189 463 189 386 q 189 610 189 539 q 189 739 189 682 q 163 751 189 747 q 108 756 138 756 q 52 751 78 756 q 26 739 26 747 l 26 19 q 43 0 26 0 l 615 0 q 627 5 622 0 q 632 19 632 10 q 632 64 632 21 q 632 173 632 107 q 632 321 632 239 q 632 482 632 403 q 632 630 632 561 q 632 739 632 699 m 325 947 q 373 942 335 949 q 458 924 411 935 q 547 903 504 914 q 611 886 590 893 q 623 908 619 883 q 626 965 626 933 q 622 1023 626 996 q 611 1053 618 1050 q 549 1068 590 1058 q 464 1088 508 1078 q 381 1106 419 1099 q 325 1114 342 1114 q 269 1107 308 1114 q 185 1090 229 1100 q 103 1069 142 1079 q 49 1053 65 1058 q 37 1022 40 1050 q 33 963 33 994 q 38 907 33 932 q 49 886 42 882 q 112 906 69 896 q 198 926 154 917 q 278 940 242 935 q 325 947 314 946 "},"ü":{"ha":658,"x_min":26,"x_max":632,"o":"m 632 739 q 606 751 632 747 q 551 756 581 756 q 495 751 521 756 q 469 739 469 747 q 469 624 469 693 q 468 475 468 554 q 468 315 468 396 q 468 167 468 233 l 189 167 q 189 310 189 233 q 189 463 189 386 q 189 610 189 539 q 189 739 189 682 q 163 751 189 747 q 108 756 138 756 q 52 751 78 756 q 26 739 26 747 l 26 19 q 43 0 26 0 l 615 0 q 627 5 622 0 q 632 19 632 10 q 632 64 632 21 q 632 173 632 107 q 632 321 632 239 q 632 482 632 403 q 632 630 632 561 q 632 739 632 699 m 232 1043 l 63 1043 q 50 1017 54 1043 q 46 959 46 990 q 50 902 46 928 q 63 876 54 876 l 232 876 q 244 902 240 876 q 249 959 249 928 q 244 1017 249 990 q 232 1043 240 1043 m 600 1043 l 429 1043 q 417 1017 421 1043 q 414 959 414 990 q 417 902 414 928 q 429 876 421 876 l 600 876 q 613 902 608 876 q 617 959 617 928 q 613 1017 617 990 q 600 1043 608 1043 "},"ý":{"ha":656,"x_min":15,"x_max":640,"o":"m 494 754 q 414 605 456 676 q 332 457 372 533 q 245 605 288 532 q 156 751 203 678 q 126 747 150 758 q 78 716 103 735 q 34 678 53 697 q 19 651 15 658 q 75 556 46 606 q 133 457 104 507 q 192 358 163 407 q 247 264 221 308 q 247 200 247 226 q 247 148 247 174 q 248 91 247 122 q 249 11 249 60 q 273 3 249 6 q 326 0 297 0 q 380 3 356 0 q 404 11 404 6 q 406 103 406 68 q 407 164 407 139 q 406 209 407 189 q 406 257 406 229 q 461 356 431 304 q 523 460 492 407 q 583 566 554 514 q 636 665 613 618 q 620 691 640 674 q 573 725 600 708 q 522 751 546 742 q 494 754 499 761 m 46 878 q 112 878 68 878 q 210 879 156 879 q 324 879 264 879 q 440 879 385 879 q 543 878 496 879 q 618 878 590 878 q 631 903 626 878 q 635 960 635 929 q 631 1018 635 992 q 618 1044 626 1044 q 556 1041 600 1044 q 456 1031 513 1038 q 337 1017 400 1025 q 216 1000 274 1008 q 113 983 158 992 q 46 969 67 975 q 35 952 39 967 q 31 921 31 938 q 34 891 31 904 q 46 878 38 878 "},"ÿ":{"ha":656,"x_min":15,"x_max":640,"o":"m 494 754 q 414 605 456 676 q 332 457 372 533 q 245 605 288 532 q 156 751 203 678 q 126 747 150 758 q 78 716 103 735 q 34 678 53 697 q 19 651 15 658 q 75 556 46 606 q 133 457 104 507 q 192 358 163 407 q 247 264 221 308 q 247 200 247 226 q 247 148 247 174 q 248 91 247 122 q 249 11 249 60 q 273 3 249 6 q 326 0 297 0 q 380 3 356 0 q 404 11 404 6 q 406 103 406 68 q 407 164 407 139 q 406 209 407 189 q 406 257 406 229 q 461 356 431 304 q 523 460 492 407 q 583 566 554 514 q 636 665 613 618 q 620 691 640 674 q 573 725 600 708 q 522 751 546 742 q 494 754 499 761 m 233 1044 l 64 1044 q 51 1018 56 1044 q 47 960 47 992 q 51 903 47 929 q 64 878 56 878 l 233 878 q 246 903 242 878 q 250 960 250 929 q 246 1018 250 992 q 233 1044 242 1044 m 601 1044 l 431 1044 q 419 1018 422 1044 q 415 960 415 992 q 419 903 415 929 q 431 878 422 878 l 601 878 q 614 903 610 878 q 618 960 618 929 q 614 1018 618 992 q 601 1044 610 1044 "},"À":{"ha":690,"x_min":44,"x_max":649,"o":"m 644 942 q 642 962 644 953 q 624 971 639 971 l 72 971 q 54 964 63 971 q 46 942 46 957 l 46 17 q 72 4 46 8 q 128 0 97 0 q 184 4 158 0 q 210 17 210 8 q 208 155 208 64 q 208 358 208 246 q 271 358 235 358 q 345 358 307 358 q 419 357 383 357 q 481 357 456 357 q 481 244 481 299 q 482 145 482 190 q 482 67 482 100 q 482 17 482 33 q 508 4 482 8 q 563 0 533 0 q 619 4 593 0 q 644 17 644 8 q 644 91 644 39 q 644 211 644 143 q 644 360 644 279 q 644 521 644 440 q 644 676 644 601 q 644 810 644 751 q 644 903 644 868 q 644 942 644 939 m 481 525 l 208 525 l 208 804 l 482 804 q 481 672 482 743 q 481 525 481 600 m 632 1107 q 644 1120 640 1107 q 649 1150 649 1133 q 644 1181 649 1167 q 632 1199 640 1196 q 565 1213 611 1204 q 463 1229 519 1221 q 342 1246 406 1238 q 223 1260 279 1254 q 123 1270 167 1267 q 61 1274 79 1274 q 49 1247 53 1274 q 44 1190 44 1221 q 49 1133 44 1158 q 61 1107 53 1107 q 136 1108 89 1107 q 239 1108 183 1108 q 355 1108 294 1108 q 469 1108 415 1108 q 567 1108 524 1108 q 632 1107 610 1107 "},"Á":{"ha":690,"x_min":46,"x_max":650,"o":"m 644 942 q 642 962 644 953 q 624 971 639 971 l 72 971 q 54 964 63 971 q 46 942 46 957 l 46 17 q 72 4 46 8 q 128 0 97 0 q 184 4 158 0 q 210 17 210 8 q 208 155 208 64 q 208 358 208 246 q 271 358 235 358 q 345 358 307 358 q 419 357 383 357 q 481 357 456 357 q 481 244 481 299 q 482 145 482 190 q 482 67 482 100 q 482 17 482 33 q 508 4 482 8 q 563 0 533 0 q 619 4 593 0 q 644 17 644 8 q 644 91 644 39 q 644 211 644 143 q 644 360 644 279 q 644 521 644 440 q 644 676 644 601 q 644 810 644 751 q 644 903 644 868 q 644 942 644 939 m 481 525 l 208 525 l 208 804 l 482 804 q 481 672 482 743 q 481 525 481 600 m 61 1113 q 127 1113 83 1113 q 225 1114 171 1114 q 340 1114 279 1114 q 456 1114 400 1114 q 558 1113 511 1114 q 633 1113 606 1113 q 646 1138 642 1113 q 650 1195 650 1164 q 646 1253 650 1226 q 633 1279 642 1279 q 572 1276 615 1279 q 472 1266 528 1272 q 352 1251 415 1260 q 231 1235 289 1243 q 128 1218 174 1226 q 61 1204 82 1210 q 50 1187 54 1201 q 46 1156 46 1172 q 49 1126 46 1139 q 61 1113 53 1113 "},"Â":{"ha":690,"x_min":46,"x_max":644,"o":"m 644 942 q 642 962 644 953 q 624 971 639 971 l 72 971 q 54 964 63 971 q 46 942 46 957 l 46 17 q 72 4 46 8 q 128 0 97 0 q 184 4 158 0 q 210 17 210 8 q 208 155 208 64 q 208 358 208 246 q 271 358 235 358 q 345 358 307 358 q 419 357 383 357 q 481 357 456 357 q 481 244 481 299 q 482 145 482 190 q 482 67 482 100 q 482 17 482 33 q 508 4 482 8 q 563 0 533 0 q 619 4 593 0 q 644 17 644 8 q 644 91 644 39 q 644 211 644 143 q 644 360 644 279 q 644 521 644 440 q 644 676 644 601 q 644 810 644 751 q 644 903 644 868 q 644 942 644 939 m 481 525 l 208 525 l 208 804 l 482 804 q 481 672 482 743 q 481 525 481 600 m 342 1169 q 390 1164 351 1171 q 474 1147 428 1157 q 564 1126 521 1136 q 628 1108 607 1115 q 640 1131 636 1106 q 643 1187 643 1156 q 639 1245 643 1218 q 628 1275 635 1272 q 566 1290 607 1281 q 481 1310 525 1300 q 397 1328 436 1321 q 342 1336 358 1336 q 285 1329 325 1336 q 202 1312 246 1322 q 120 1291 158 1301 q 65 1275 82 1281 q 53 1244 57 1272 q 50 1185 50 1217 q 54 1129 50 1154 q 65 1108 58 1104 q 128 1128 86 1118 q 215 1148 171 1139 q 294 1163 258 1157 q 342 1169 331 1168 "},"Ã":{"ha":690,"x_min":46,"x_max":646,"o":"m 644 942 q 642 962 644 953 q 624 971 639 971 l 72 971 q 54 964 63 971 q 46 942 46 957 l 46 17 q 72 4 46 8 q 128 0 97 0 q 184 4 158 0 q 210 17 210 8 q 208 155 208 64 q 208 358 208 246 q 271 358 235 358 q 345 358 307 358 q 419 357 383 357 q 481 357 456 357 q 481 244 481 299 q 482 145 482 190 q 482 67 482 100 q 482 17 482 33 q 508 4 482 8 q 563 0 533 0 q 619 4 593 0 q 644 17 644 8 q 644 91 644 39 q 644 211 644 143 q 644 360 644 279 q 644 521 644 440 q 644 676 644 601 q 644 810 644 751 q 644 903 644 868 q 644 942 644 939 m 481 525 l 208 525 l 208 804 l 482 804 q 481 672 482 743 q 481 525 481 600 m 631 1121 q 642 1149 639 1122 q 646 1208 646 1176 q 642 1265 646 1240 q 631 1288 638 1290 q 535 1272 586 1271 q 430 1281 483 1272 q 324 1302 376 1290 q 222 1319 271 1314 q 131 1319 172 1325 q 58 1288 89 1314 q 49 1253 51 1282 q 46 1194 46 1225 q 49 1140 46 1163 q 58 1121 51 1117 q 150 1160 103 1150 q 246 1167 197 1169 q 344 1153 294 1164 q 442 1133 393 1143 q 539 1118 492 1124 q 631 1121 586 1113 "},"Ä":{"ha":690,"x_min":46,"x_max":644,"o":"m 644 942 q 642 962 644 953 q 624 971 639 971 l 72 971 q 54 964 63 971 q 46 942 46 957 l 46 17 q 72 4 46 8 q 128 0 97 0 q 184 4 158 0 q 210 17 210 8 q 208 155 208 64 q 208 358 208 246 q 271 358 235 358 q 345 358 307 358 q 419 357 383 357 q 481 357 456 357 q 481 244 481 299 q 482 145 482 190 q 482 67 482 100 q 482 17 482 33 q 508 4 482 8 q 563 0 533 0 q 619 4 593 0 q 644 17 644 8 q 644 91 644 39 q 644 211 644 143 q 644 360 644 279 q 644 521 644 440 q 644 676 644 601 q 644 810 644 751 q 644 903 644 868 q 644 942 644 939 m 481 525 l 208 525 l 208 804 l 482 804 q 481 672 482 743 q 481 525 481 600 m 247 1279 l 78 1279 q 65 1253 69 1279 q 61 1195 61 1226 q 65 1138 61 1164 q 78 1113 69 1113 l 247 1113 q 260 1138 256 1113 q 264 1195 264 1164 q 260 1253 264 1226 q 247 1279 256 1279 m 615 1279 l 444 1279 q 433 1253 436 1279 q 429 1195 429 1226 q 433 1138 429 1164 q 444 1113 436 1113 l 615 1113 q 628 1138 624 1113 q 632 1195 632 1164 q 628 1253 632 1226 q 615 1279 624 1279 "},"È":{"ha":692,"x_min":43,"x_max":649,"o":"m 628 168 l 628 168 l 206 168 l 206 357 q 279 357 239 357 q 359 357 319 357 q 431 357 399 357 q 481 357 464 357 q 494 383 489 357 q 501 440 500 408 q 499 497 501 471 q 488 524 496 524 l 206 524 l 206 803 l 628 803 q 640 828 636 803 q 644 885 644 854 q 640 942 644 917 q 628 968 636 968 l 63 968 q 48 960 53 968 q 43 940 43 951 l 43 29 q 69 0 43 0 l 628 0 q 640 26 636 0 q 644 84 644 53 q 640 142 644 115 q 628 168 636 168 m 632 1108 q 644 1122 640 1108 q 649 1151 649 1135 q 644 1183 649 1168 q 632 1200 640 1197 q 565 1214 611 1206 q 463 1231 519 1222 q 342 1247 406 1239 q 223 1262 279 1256 q 123 1272 167 1268 q 61 1275 79 1275 q 49 1249 53 1275 q 44 1191 44 1222 q 49 1134 44 1160 q 61 1108 53 1108 q 136 1109 89 1108 q 239 1110 183 1110 q 355 1110 294 1110 q 469 1110 415 1110 q 567 1109 524 1110 q 632 1108 610 1108 "},"É":{"ha":692,"x_min":43,"x_max":650,"o":"m 628 168 l 628 168 l 206 168 l 206 357 q 279 357 239 357 q 359 357 319 357 q 431 357 399 357 q 481 357 464 357 q 494 383 489 357 q 501 440 500 408 q 499 497 501 471 q 488 524 496 524 l 206 524 l 206 803 l 628 803 q 640 828 636 803 q 644 885 644 854 q 640 942 644 917 q 628 968 636 968 l 63 968 q 48 960 53 968 q 43 940 43 951 l 43 29 q 69 0 43 0 l 628 0 q 640 26 636 0 q 644 84 644 53 q 640 142 644 115 q 628 168 636 168 m 61 1110 q 127 1110 83 1110 q 225 1111 171 1111 q 340 1111 279 1111 q 456 1111 400 1111 q 558 1110 511 1111 q 633 1110 606 1110 q 646 1135 642 1110 q 650 1192 650 1161 q 646 1250 650 1224 q 633 1276 642 1276 q 572 1273 615 1276 q 472 1263 528 1269 q 352 1249 415 1257 q 231 1232 289 1240 q 128 1215 174 1224 q 61 1201 82 1207 q 50 1184 54 1199 q 46 1153 46 1169 q 49 1123 46 1136 q 61 1110 53 1110 "},"Ê":{"ha":692,"x_min":43,"x_max":644,"o":"m 628 168 l 628 168 l 206 168 l 206 357 q 279 357 239 357 q 359 357 319 357 q 431 357 399 357 q 481 357 464 357 q 494 383 489 357 q 501 440 500 408 q 499 497 501 471 q 488 524 496 524 l 206 524 l 206 803 l 628 803 q 640 828 636 803 q 644 885 644 854 q 640 942 644 917 q 628 968 636 968 l 63 968 q 48 960 53 968 q 43 940 43 951 l 43 29 q 69 0 43 0 l 628 0 q 640 26 636 0 q 644 84 644 53 q 640 142 644 115 q 628 168 636 168 m 342 1169 q 390 1164 351 1171 q 474 1147 428 1157 q 564 1126 521 1136 q 628 1108 607 1115 q 640 1131 636 1106 q 643 1187 643 1156 q 639 1245 643 1218 q 628 1275 635 1272 q 566 1290 607 1281 q 481 1310 525 1300 q 397 1328 436 1321 q 342 1336 358 1336 q 285 1329 325 1336 q 202 1312 246 1322 q 120 1291 158 1301 q 65 1275 82 1281 q 53 1244 57 1272 q 50 1185 50 1217 q 54 1129 50 1154 q 65 1108 58 1104 q 128 1128 86 1118 q 215 1148 171 1139 q 294 1163 258 1157 q 342 1169 331 1168 "},"Ë":{"ha":692,"x_min":43,"x_max":644,"o":"m 628 168 l 628 168 l 206 168 l 206 357 q 279 357 239 357 q 359 357 319 357 q 431 357 399 357 q 481 357 464 357 q 494 383 489 357 q 501 440 500 408 q 499 497 501 471 q 488 524 496 524 l 206 524 l 206 803 l 628 803 q 640 828 636 803 q 644 885 644 854 q 640 942 644 917 q 628 968 636 968 l 63 968 q 48 960 53 968 q 43 940 43 951 l 43 29 q 69 0 43 0 l 628 0 q 640 26 636 0 q 644 84 644 53 q 640 142 644 115 q 628 168 636 168 m 249 1279 l 79 1279 q 67 1253 71 1279 q 63 1195 63 1226 q 67 1138 63 1164 q 79 1113 71 1113 l 249 1113 q 261 1138 257 1113 q 265 1195 265 1164 q 261 1253 265 1226 q 249 1279 257 1279 m 617 1279 l 446 1279 q 434 1253 438 1279 q 431 1195 431 1226 q 434 1138 431 1164 q 446 1113 438 1113 l 617 1113 q 629 1138 625 1113 q 633 1195 633 1164 q 629 1253 633 1226 q 617 1279 625 1279 "},"Ì":{"ha":243,"x_min":-57,"x_max":300,"o":"m 204 954 q 178 967 204 963 q 122 971 153 971 q 66 967 92 971 q 40 954 40 963 l 40 17 q 66 4 40 8 q 122 0 92 0 q 178 4 153 0 q 204 17 204 8 q 203 124 204 54 q 203 282 203 194 q 203 466 203 369 q 203 653 203 563 q 203 824 203 744 q 204 954 204 903 m 291 1145 q 299 1156 296 1145 q 301 1183 301 1168 q 299 1210 301 1197 q 291 1225 296 1223 q 252 1237 279 1230 q 191 1252 225 1245 q 120 1266 157 1259 q 49 1279 82 1274 q -10 1288 16 1285 q -47 1291 -36 1291 q -54 1268 -52 1291 q -57 1217 -57 1245 q -54 1167 -57 1190 q -47 1145 -52 1145 q -2 1145 -30 1145 q 58 1146 26 1146 q 127 1146 91 1146 q 195 1146 163 1146 q 253 1145 227 1146 q 291 1145 278 1145 "},"Í":{"ha":243,"x_min":-42,"x_max":292,"o":"m 204 954 q 178 967 204 963 q 122 971 153 971 q 66 967 92 971 q 40 954 40 963 l 40 17 q 66 4 40 8 q 122 0 92 0 q 178 4 153 0 q 204 17 204 8 q 203 124 204 54 q 203 282 203 194 q 203 466 203 369 q 203 653 203 563 q 203 824 203 744 q 204 954 204 903 m -32 1145 q 4 1146 -20 1145 q 59 1146 29 1146 q 122 1146 88 1146 q 186 1146 155 1146 q 242 1146 216 1146 q 284 1145 269 1145 q 291 1166 288 1145 q 293 1212 293 1187 q 291 1259 293 1237 q 284 1280 288 1280 q 250 1277 274 1280 q 195 1269 226 1274 q 129 1258 164 1264 q 62 1244 94 1251 q 5 1231 30 1237 q -32 1219 -20 1224 q -38 1205 -36 1217 q -40 1180 -40 1193 q -38 1156 -40 1166 q -32 1145 -37 1145 "},"Î":{"ha":243,"x_min":-58,"x_max":301,"o":"m 204 954 q 178 967 204 963 q 122 971 153 971 q 66 967 92 971 q 40 954 40 963 l 40 17 q 66 4 40 8 q 122 0 92 0 q 178 4 153 0 q 204 17 204 8 q 203 124 204 54 q 203 282 203 194 q 203 466 203 369 q 203 653 203 563 q 203 824 203 744 q 204 954 204 903 m 120 1194 q 149 1190 126 1195 q 200 1179 172 1186 q 254 1166 228 1173 q 293 1155 280 1160 q 300 1169 298 1154 q 302 1205 302 1185 q 300 1241 302 1224 q 293 1260 297 1258 q 255 1270 280 1263 q 204 1282 231 1276 q 153 1294 177 1289 q 120 1298 130 1298 q 86 1294 110 1298 q 35 1283 62 1290 q -15 1270 9 1277 q -48 1260 -38 1263 q -55 1241 -53 1258 q -57 1204 -57 1223 q -54 1168 -57 1184 q -48 1155 -52 1153 q -9 1168 -35 1161 q 43 1180 16 1174 q 91 1189 69 1186 q 120 1194 113 1193 "},"Ï":{"ha":243,"x_min":-56,"x_max":299,"o":"m 204 954 q 178 967 204 963 q 122 971 153 971 q 66 967 92 971 q 40 954 40 963 l 40 17 q 66 4 40 8 q 122 0 92 0 q 178 4 153 0 q 204 17 204 8 q 203 124 204 54 q 203 282 203 194 q 203 466 203 369 q 203 653 203 563 q 203 824 203 744 q 204 954 204 903 m 60 1260 l -45 1260 q -53 1240 -50 1260 q -55 1196 -55 1220 q -53 1152 -55 1172 q -45 1133 -50 1133 l 60 1133 q 68 1152 66 1133 q 71 1196 71 1172 q 68 1240 71 1220 q 60 1260 66 1260 m 289 1260 l 183 1260 q 175 1240 178 1260 q 173 1196 173 1220 q 175 1152 173 1172 q 183 1133 178 1133 l 289 1133 q 296 1152 294 1133 q 299 1196 299 1172 q 296 1240 299 1220 q 289 1260 294 1260 "},"Ñ":{"ha":678,"x_min":36,"x_max":642,"o":"m 642 17 l 642 949 q 616 965 642 960 q 560 969 590 969 q 505 963 531 968 q 479 949 479 957 q 479 851 479 913 q 479 714 479 790 q 478 553 479 638 q 478 386 478 468 q 436 468 458 424 q 391 560 414 513 q 345 654 368 607 q 301 744 322 701 q 200 949 251 846 q 174 963 200 957 q 118 969 149 968 q 62 965 88 969 q 36 949 36 960 l 36 17 q 62 4 36 8 q 118 0 88 0 q 174 4 149 0 q 200 17 200 8 q 200 113 200 51 q 200 251 200 174 q 200 414 200 328 q 200 585 200 500 q 288 408 243 499 q 372 238 332 317 q 440 99 411 158 q 482 14 469 39 q 512 3 486 6 q 566 1 538 0 q 618 6 594 1 q 642 17 642 10 m 625 1117 q 637 1145 633 1118 q 640 1204 640 1172 q 636 1261 640 1236 q 625 1283 632 1286 q 529 1267 581 1267 q 424 1277 478 1268 q 318 1298 371 1286 q 216 1315 265 1310 q 125 1315 167 1321 q 53 1283 83 1310 q 43 1249 46 1278 q 40 1190 40 1221 q 43 1135 40 1158 q 53 1117 46 1113 q 144 1156 97 1146 q 240 1163 192 1165 q 338 1149 289 1160 q 437 1129 388 1139 q 533 1114 486 1119 q 625 1117 581 1108 "},"Ò":{"ha":678,"x_min":36,"x_max":642,"o":"m 642 28 l 642 949 q 638 964 642 957 q 624 971 635 971 l 56 971 q 40 963 43 971 q 36 949 36 956 l 36 835 l 36 21 q 44 5 36 10 q 56 0 51 0 l 621 0 q 638 9 635 0 q 642 28 642 18 m 199 169 l 199 804 l 479 804 q 478 653 479 736 q 478 485 478 571 q 478 318 478 400 q 479 169 479 236 q 338 171 413 171 q 199 169 264 171 m 625 1115 q 638 1128 633 1115 q 642 1158 642 1142 q 638 1190 642 1175 q 625 1207 633 1204 q 558 1221 604 1213 q 456 1238 513 1229 q 335 1254 399 1246 q 216 1269 272 1263 q 116 1278 160 1275 q 54 1282 72 1282 q 42 1256 46 1282 q 38 1198 38 1229 q 42 1141 38 1167 q 54 1115 46 1115 q 129 1116 82 1115 q 232 1117 176 1117 q 348 1117 288 1117 q 463 1117 408 1117 q 560 1116 517 1117 q 625 1115 603 1115 "},"Ó":{"ha":678,"x_min":36,"x_max":643,"o":"m 642 28 l 642 949 q 638 964 642 957 q 624 971 635 971 l 56 971 q 40 963 43 971 q 36 949 36 956 l 36 835 l 36 21 q 44 5 36 10 q 56 0 51 0 l 621 0 q 638 9 635 0 q 642 28 642 18 m 199 169 l 199 804 l 479 804 q 478 653 479 736 q 478 485 478 571 q 478 318 478 400 q 479 169 479 236 q 338 171 413 171 q 199 169 264 171 m 54 1113 q 120 1113 76 1113 q 218 1114 164 1114 q 333 1114 272 1114 q 449 1114 393 1114 q 551 1113 504 1114 q 626 1113 599 1113 q 639 1138 635 1113 q 643 1195 643 1164 q 639 1253 643 1226 q 626 1279 635 1279 q 565 1276 608 1279 q 465 1266 521 1272 q 345 1251 408 1260 q 224 1235 282 1243 q 121 1218 167 1226 q 54 1204 75 1210 q 43 1187 47 1201 q 39 1156 39 1172 q 42 1126 39 1139 q 54 1113 46 1113 "},"Ô":{"ha":678,"x_min":36,"x_max":642,"o":"m 642 28 l 642 949 q 638 964 642 957 q 624 971 635 971 l 56 971 q 40 963 43 971 q 36 949 36 956 l 36 835 l 36 21 q 44 5 36 10 q 56 0 51 0 l 621 0 q 638 9 635 0 q 642 28 642 18 m 199 169 l 199 804 l 479 804 q 478 653 479 736 q 478 485 478 571 q 478 318 478 400 q 479 169 479 236 q 338 171 413 171 q 199 169 264 171 m 335 1174 q 383 1168 344 1175 q 467 1151 421 1161 q 557 1130 514 1140 q 621 1113 600 1119 q 633 1135 629 1110 q 636 1191 636 1160 q 632 1249 636 1222 q 621 1279 628 1276 q 559 1294 600 1285 q 474 1315 518 1304 q 390 1333 429 1325 q 335 1340 351 1340 q 278 1333 318 1340 q 195 1316 239 1326 q 113 1295 151 1306 q 58 1279 75 1285 q 47 1249 50 1276 q 43 1190 43 1221 q 47 1133 43 1158 q 58 1113 51 1108 q 122 1133 79 1122 q 208 1152 164 1143 q 288 1167 251 1161 q 335 1174 324 1172 "},"Õ":{"ha":678,"x_min":36,"x_max":642,"o":"m 642 28 l 642 949 q 638 964 642 957 q 624 971 635 971 l 56 971 q 40 963 43 971 q 36 949 36 956 l 36 835 l 36 21 q 44 5 36 10 q 56 0 51 0 l 621 0 q 638 9 635 0 q 642 28 642 18 m 199 169 l 199 804 l 479 804 q 478 653 479 736 q 478 485 478 571 q 478 318 478 400 q 479 169 479 236 q 338 171 413 171 q 199 169 264 171 m 625 1121 q 637 1149 633 1122 q 640 1208 640 1176 q 636 1265 640 1240 q 625 1288 632 1290 q 529 1272 581 1271 q 424 1281 478 1272 q 318 1302 371 1290 q 216 1319 265 1314 q 125 1319 167 1325 q 53 1288 83 1314 q 43 1253 46 1282 q 40 1194 40 1225 q 43 1140 40 1163 q 53 1121 46 1117 q 144 1160 97 1150 q 240 1167 192 1169 q 338 1153 289 1164 q 437 1133 388 1143 q 533 1118 486 1124 q 625 1121 581 1113 "},"Ö":{"ha":678,"x_min":36,"x_max":642,"o":"m 642 28 l 642 949 q 638 964 642 957 q 624 971 635 971 l 56 971 q 40 963 43 971 q 36 949 36 956 l 36 835 l 36 21 q 44 5 36 10 q 56 0 51 0 l 621 0 q 638 9 635 0 q 642 28 642 18 m 199 169 l 199 804 l 479 804 q 478 653 479 736 q 478 485 478 571 q 478 318 478 400 q 479 169 479 236 q 338 171 413 171 q 199 169 264 171 m 242 1282 l 72 1282 q 60 1256 64 1282 q 56 1198 56 1229 q 60 1141 56 1167 q 72 1115 64 1115 l 242 1115 q 254 1141 250 1115 q 258 1198 258 1167 q 254 1256 258 1229 q 242 1282 250 1282 m 610 1282 l 439 1282 q 427 1256 431 1282 q 424 1198 424 1229 q 427 1141 424 1167 q 439 1115 431 1115 l 610 1115 q 622 1141 618 1115 q 626 1198 626 1167 q 622 1256 626 1229 q 610 1282 618 1282 "},"Ù":{"ha":669,"x_min":31,"x_max":639,"o":"m 639 28 l 639 956 q 613 968 639 964 q 557 972 588 972 q 501 968 526 972 q 475 956 475 964 l 475 169 l 196 169 q 195 369 196 258 q 194 591 194 481 q 195 798 194 701 q 196 956 196 894 q 170 968 196 964 q 113 972 144 972 q 56 968 82 972 q 31 956 31 964 l 31 21 q 37 6 31 11 q 50 0 43 0 l 608 0 q 627 6 615 0 q 639 28 639 11 m 621 1113 q 633 1126 629 1113 q 638 1156 638 1139 q 633 1187 638 1172 q 621 1204 629 1201 q 554 1218 600 1210 q 451 1235 508 1226 q 331 1251 394 1243 q 212 1266 268 1260 q 112 1276 156 1272 q 50 1279 68 1279 q 38 1253 42 1279 q 33 1195 33 1226 q 38 1138 33 1164 q 50 1113 42 1113 q 125 1113 78 1113 q 228 1114 172 1114 q 344 1114 283 1114 q 458 1114 404 1114 q 556 1113 513 1114 q 621 1113 599 1113 "},"Ú":{"ha":669,"x_min":31,"x_max":639,"o":"m 639 28 l 639 956 q 613 968 639 964 q 557 972 588 972 q 501 968 526 972 q 475 956 475 964 l 475 169 l 196 169 q 195 369 196 258 q 194 591 194 481 q 195 798 194 701 q 196 956 196 894 q 170 968 196 964 q 113 972 144 972 q 56 968 82 972 q 31 956 31 964 l 31 21 q 37 6 31 11 q 50 0 43 0 l 608 0 q 627 6 615 0 q 639 28 639 11 m 50 1113 q 116 1113 72 1113 q 214 1114 160 1114 q 328 1114 268 1114 q 444 1114 389 1114 q 547 1113 500 1114 q 622 1113 594 1113 q 635 1138 631 1113 q 639 1195 639 1164 q 635 1253 639 1226 q 622 1279 631 1279 q 560 1276 604 1279 q 460 1266 517 1272 q 341 1251 404 1260 q 220 1235 278 1243 q 117 1218 163 1226 q 50 1204 71 1210 q 39 1187 43 1201 q 35 1156 35 1172 q 38 1126 35 1139 q 50 1113 42 1113 "},"Û":{"ha":669,"x_min":31,"x_max":639,"o":"m 639 28 l 639 956 q 613 968 639 964 q 557 972 588 972 q 501 968 526 972 q 475 956 475 964 l 475 169 l 196 169 q 195 369 196 258 q 194 591 194 481 q 195 798 194 701 q 196 956 196 894 q 170 968 196 964 q 113 972 144 972 q 56 968 82 972 q 31 956 31 964 l 31 21 q 37 6 31 11 q 50 0 43 0 l 608 0 q 627 6 615 0 q 639 28 639 11 m 331 1175 q 378 1169 340 1176 q 463 1152 417 1163 q 553 1131 510 1142 q 617 1114 596 1121 q 628 1136 625 1111 q 632 1192 632 1161 q 628 1251 632 1224 q 617 1281 624 1278 q 555 1296 596 1286 q 469 1316 514 1306 q 386 1334 425 1326 q 331 1342 347 1342 q 274 1335 314 1342 q 191 1317 235 1328 q 109 1297 147 1307 q 54 1281 71 1286 q 42 1250 46 1278 q 39 1191 39 1222 q 43 1135 39 1160 q 54 1114 47 1110 q 117 1134 75 1124 q 203 1153 160 1144 q 283 1168 247 1163 q 331 1175 319 1174 "},"Ü":{"ha":669,"x_min":31,"x_max":639,"o":"m 639 28 l 639 956 q 613 968 639 964 q 557 972 588 972 q 501 968 526 972 q 475 956 475 964 l 475 169 l 196 169 q 195 369 196 258 q 194 591 194 481 q 195 798 194 701 q 196 956 196 894 q 170 968 196 964 q 113 972 144 972 q 56 968 82 972 q 31 956 31 964 l 31 21 q 37 6 31 11 q 50 0 43 0 l 608 0 q 627 6 615 0 q 639 28 639 11 m 238 1281 l 68 1281 q 56 1254 60 1281 q 51 1197 51 1228 q 56 1140 51 1165 q 68 1114 60 1114 l 238 1114 q 250 1140 246 1114 q 254 1197 254 1165 q 250 1254 254 1228 q 238 1281 246 1281 m 606 1281 l 435 1281 q 423 1254 426 1281 q 419 1197 419 1228 q 423 1140 419 1165 q 435 1114 426 1114 l 606 1114 q 618 1140 614 1114 q 622 1197 622 1165 q 618 1254 622 1228 q 606 1281 614 1281 "},"Ý":{"ha":657,"x_min":15,"x_max":640,"o":"m 494 969 q 417 820 456 892 q 339 672 379 749 q 249 824 294 747 q 156 972 203 900 q 126 969 150 981 q 78 938 103 957 q 34 900 53 919 q 19 874 15 881 q 76 777 46 828 q 135 675 106 726 q 193 574 164 624 q 249 479 222 524 q 247 235 247 356 q 249 11 247 115 q 273 3 249 6 q 327 0 297 0 q 381 3 357 0 q 406 11 406 6 l 406 472 q 460 571 431 519 q 519 675 489 622 q 580 780 550 728 q 636 881 610 832 q 620 906 640 889 q 574 940 600 924 q 523 967 547 957 q 494 969 499 976 m 44 1111 q 110 1112 67 1111 q 208 1113 154 1113 q 323 1113 263 1113 q 439 1113 383 1113 q 542 1112 494 1113 q 617 1111 589 1111 q 629 1137 625 1111 q 633 1194 633 1163 q 629 1251 633 1225 q 617 1278 625 1278 q 555 1274 599 1278 q 455 1265 511 1271 q 335 1250 399 1258 q 215 1233 272 1242 q 111 1217 157 1225 q 44 1203 65 1208 q 33 1185 38 1200 q 29 1154 29 1171 q 33 1124 29 1138 q 44 1111 36 1111 "},"Ÿ":{"ha":657,"x_min":15,"x_max":640,"o":"m 494 969 q 417 820 456 892 q 339 672 379 749 q 249 824 294 747 q 156 972 203 900 q 126 969 150 981 q 78 938 103 957 q 34 900 53 919 q 19 874 15 881 q 76 777 46 828 q 135 675 106 726 q 193 574 164 624 q 249 479 222 524 q 247 235 247 356 q 249 11 247 115 q 273 3 249 6 q 327 0 297 0 q 381 3 357 0 q 406 11 406 6 l 406 472 q 460 571 431 519 q 519 675 489 622 q 580 780 550 728 q 636 881 610 832 q 620 906 640 889 q 574 940 600 924 q 523 967 547 957 q 494 969 499 976 m 231 1279 l 61 1279 q 49 1253 53 1279 q 44 1195 44 1226 q 49 1138 44 1164 q 61 1113 53 1113 l 231 1113 q 243 1138 239 1113 q 247 1195 247 1164 q 243 1253 247 1226 q 231 1279 239 1279 m 599 1279 l 428 1279 q 416 1253 419 1279 q 413 1195 413 1226 q 416 1138 413 1164 q 428 1113 419 1113 l 599 1113 q 611 1138 607 1113 q 615 1195 615 1164 q 611 1253 615 1226 q 599 1279 607 1279 "},"A":{"ha":690,"x_min":46,"x_max":644,"o":"m 644 942 q 642 962 644 953 q 624 971 639 971 l 72 971 q 54 964 63 971 q 46 942 46 957 l 46 17 q 72 4 46 8 q 128 0 97 0 q 184 4 158 0 q 210 17 210 8 q 208 155 208 64 q 208 358 208 246 q 271 358 235 358 q 345 358 307 358 q 419 357 383 357 q 481 357 456 357 q 481 244 481 299 q 482 145 482 190 q 482 67 482 100 q 482 17 482 33 q 508 4 482 8 q 563 0 533 0 q 619 4 593 0 q 644 17 644 8 q 644 91 644 39 q 644 211 644 143 q 644 360 644 279 q 644 521 644 440 q 644 676 644 601 q 644 810 644 751 q 644 903 644 868 q 644 942 644 939 m 481 525 l 208 525 l 208 804 l 482 804 q 481 672 482 743 q 481 525 481 600 "},"B":{"ha":708,"x_min":50,"x_max":661,"o":"m 661 29 l 661 940 q 654 961 661 954 q 638 968 647 968 l 65 968 q 53 942 57 968 q 50 885 50 917 q 55 828 50 854 q 68 803 60 803 l 82 803 l 82 168 l 68 168 q 56 142 60 168 q 51 84 51 115 q 56 26 51 53 q 68 0 60 0 l 639 0 q 657 8 653 0 q 661 29 661 17 m 244 803 l 497 803 l 497 524 l 244 524 l 244 803 m 497 168 l 244 168 l 244 357 q 308 357 274 357 q 378 356 343 357 q 444 356 413 356 q 497 356 475 356 l 497 168 "},"C":{"ha":694,"x_min":44,"x_max":646,"o":"m 629 168 q 563 168 610 168 q 457 168 517 168 q 331 168 397 168 q 207 168 265 168 l 207 803 l 629 803 q 642 828 638 803 q 646 885 646 854 q 642 943 646 917 q 629 969 638 969 q 568 969 611 969 q 469 968 525 968 q 350 968 413 968 q 231 968 288 968 q 131 969 175 968 q 71 969 88 969 q 49 960 53 969 q 44 939 44 950 l 44 29 q 49 9 44 18 q 65 0 54 0 l 629 0 q 642 26 638 0 q 646 84 646 53 q 642 142 646 115 q 629 168 638 168 "}}}
